<svg width="27" height="30" viewBox="0 0 27 30" fill="none" xmlns="http://www.w3.org/2000/svg">
<path id="bell" d="M13.529 0C14.5148 0 15.3847 0.878906 15.3847 1.875V3.04688C19.6179 3.86719 22.8073 7.67578 22.8073 12.1875V13.3008C22.8073 16.0547 23.7931 18.75 25.5908 20.8008L25.9967 21.2695C26.5186 21.8555 26.6346 22.6172 26.3447 23.3203C26.0547 23.9648 25.3589 24.375 24.663 24.375H2.39501C1.64115 24.375 0.945276 23.9648 0.655329 23.3203C0.365382 22.6172 0.481361 21.8555 1.00327 21.2695L1.40919 20.8008C3.20687 18.75 4.25068 16.0547 4.25068 13.3008V12.1875C4.25068 7.67578 7.4401 3.86719 11.6733 3.04688V1.875C11.6733 0.878906 12.4852 0 13.529 0ZM16.1385 28.9453C15.4426 29.6484 14.5148 30 13.529 30C12.5432 30 11.5574 29.6484 10.8615 28.9453C10.1656 28.2422 9.81767 27.2461 9.81767 26.25H13.529H17.2403C17.2403 27.2461 16.8344 28.2422 16.1385 28.9453Z" fill="#8B5EE5"/>
</svg>
