<svg width="35" height="12" viewBox="0 0 35 12" fill="none" xmlns="http://www.w3.org/2000/svg">
<g clip-path="url(#clip0_8446_10774)">
<path d="M10.9333 0.137939H11.9193V10.7732C11.9193 11.3073 11.5065 11.7403 10.9972 11.7403H10.0112V1.10508C10.0106 0.570909 10.424 0.137939 10.9333 0.137939Z" fill="white"/>
<path d="M17.3389 7.63588C17.3389 4.86045 18.9108 3.43018 21.2522 3.43018C23.5935 3.43018 25.1655 4.84302 25.1655 7.63588V10.7732C25.1655 11.3074 24.7527 11.7404 24.2434 11.7404H23.2574V7.63588C23.2574 6.0548 22.4555 5.29744 21.2528 5.29744C20.0502 5.29744 19.2482 6.0548 19.2482 7.63588V10.7732C19.2482 11.3074 18.8354 11.7404 18.3261 11.7404H17.3401V7.63588H17.3389Z" fill="white"/>
<path d="M27.7987 0.137939H28.7847V7.06411L31.5165 3.90665C31.7785 3.60371 32.151 3.43079 32.5408 3.43079H34.3659L30.6449 7.50177L34.5103 11.741H32.638C32.2475 11.741 31.875 11.5681 31.6124 11.2644L28.7841 7.9897V10.7738C28.7841 11.308 28.3713 11.741 27.862 11.741H26.876V1.10508C26.8766 0.570909 27.2894 0.137939 27.7987 0.137939Z" fill="white"/>
<path d="M4.67287 3.35706C2.43248 3.35706 0.617676 5.26051 0.617676 7.60967C0.617676 9.95883 2.43248 11.863 4.67287 11.863C6.91325 11.863 8.72742 9.95951 8.72742 7.60967C8.72742 5.25984 6.91261 3.35706 4.67287 3.35706ZM4.44665 9.93672C3.22102 9.93672 2.22735 8.89518 2.22735 7.609C2.22735 6.32283 3.22038 5.28263 4.44665 5.28263C5.67292 5.28263 6.66468 6.32417 6.66468 7.609C6.66468 8.89384 5.67165 9.93672 4.44665 9.93672Z" fill="white"/>
<path d="M1.24143 0.137939H2.22743V10.7732C2.22743 11.3073 1.81463 11.7403 1.30534 11.7403H0.319336V1.10508C0.319336 0.570909 0.73214 0.137939 1.24143 0.137939Z" fill="white"/>
<path d="M33.2163 0.150024V0.328306H32.9371V1.24853H32.7269V0.328306H32.4482V0.150024H33.2163Z" fill="white"/>
<path d="M34.5111 0.150024V1.24853H34.3015V0.534067L34.0203 1.24853H33.8618L33.5794 0.534067V1.24853H33.3691V0.150024H33.6081L33.9411 0.967036L34.274 0.150024H34.5111Z" fill="white"/>
<path d="M14.6289 6.64719C15.4166 6.64719 16.0552 5.97742 16.0552 5.15123C16.0552 4.32504 15.4166 3.65527 14.6289 3.65527C13.8412 3.65527 13.2026 4.32504 13.2026 5.15123C13.2026 5.97742 13.8412 6.64719 14.6289 6.64719Z" fill="white"/>
<path d="M14.6289 11.863C15.4166 11.863 16.0552 11.1932 16.0552 10.367C16.0552 9.54086 15.4166 8.87109 14.6289 8.87109C13.8412 8.87109 13.2026 9.54086 13.2026 10.367C13.2026 11.1932 13.8412 11.863 14.6289 11.863Z" fill="white"/>
</g>
<defs>
<clipPath id="clip0_8446_10774">
<rect width="34.1918" height="11.725" fill="white" transform="translate(0.319336 0.137939)"/>
</clipPath>
</defs>
</svg>
