<svg width="78" height="25" viewBox="0 0 78 25" fill="none" xmlns="http://www.w3.org/2000/svg">
<path d="M4 16.3395C4.03087 15.8225 4.06328 15.0539 4.06328 14.3795V5.20923H5.42756V9.97495H5.45842C5.72093 9.52869 6.10102 9.16312 6.55716 8.91817C7.0133 8.67323 7.52798 8.55831 8.04499 8.58597C9.92627 8.58597 11.2581 10.154 11.2427 12.4581C11.3061 12.9511 11.2669 13.4519 11.1275 13.929C10.9881 14.4061 10.7515 14.8492 10.4327 15.2305C10.1138 15.6118 9.71958 15.9231 9.27469 16.1447C8.82979 16.3664 8.34387 16.4936 7.84745 16.5185C7.3323 16.548 6.81947 16.4294 6.36959 16.1767C5.91971 15.924 5.55158 15.5478 5.30872 15.0925H5.25779L5.19452 16.3457L4 16.3395ZM5.42601 13.2977C5.43054 13.4665 5.45173 13.6345 5.48929 13.7992C5.60417 14.2609 5.87045 14.6708 6.24558 14.9634C6.62072 15.256 7.08308 15.4145 7.55885 15.4135C9.00183 15.4135 9.86299 14.2375 9.86299 12.4982C9.86299 10.9781 9.079 9.67555 7.60515 9.67555C7.11612 9.68465 6.64407 9.8565 6.26366 10.164C5.88325 10.4714 5.61619 10.8969 5.50472 11.3732C5.45877 11.5582 5.43239 11.7475 5.42601 11.938V13.2977Z" fill="white"/>
<path d="M13.3726 8.75322L15.0348 13.2288C15.2076 13.7304 15.3944 14.3261 15.5209 14.7813H15.5518C15.6922 14.3261 15.8496 13.7458 16.0379 13.1979L17.5426 8.74552H18.9995L16.9299 14.1471C16.4514 15.9144 15.5596 17.5425 14.3279 18.8973C13.8496 19.338 13.2644 19.646 12.6303 19.7909L12.2861 18.6319C12.7276 18.4858 13.1372 18.2569 13.493 17.9575C13.9949 17.5406 14.3924 17.0121 14.6536 16.4142C14.7093 16.3114 14.7464 16.1996 14.7631 16.0839C14.7506 15.9599 14.7189 15.8385 14.669 15.7243L11.8633 8.73315L13.3726 8.75322Z" fill="white"/>
<path d="M30.1662 7.35779H23V17.6394H30.1662V15.6201H25.4844V9.3754H30.1662V7.35779Z" fill="white"/>
<path d="M30.1675 11.4857H27.3477V13.5085H30.1675V11.4857Z" fill="white"/>
<path d="M66.5032 7.35803H73.6694V17.6397H66.5032V15.6204H71.1798V9.37565H66.498L66.5032 7.35803Z" fill="white"/>
<path d="M69.3257 11.4857H66.5059V13.5085H69.3257V11.4857Z" fill="white"/>
<path d="M38.745 7.35779L36.4474 14.8819H36.3627L34.0632 7.35779H31.2832L34.7513 17.6325H38.0535L41.5216 7.35779H38.745Z" fill="white"/>
<path d="M50.0324 9.64223C49.6992 8.90399 49.1484 8.28511 48.4539 7.86839C47.7039 7.46941 46.8674 7.26074 46.0179 7.26074C45.1684 7.26074 44.3319 7.46941 43.5819 7.86839C42.8919 8.28697 42.3442 8.90398 42.0103 9.63877C41.2752 11.4551 41.2752 13.4862 42.0103 15.3026C42.3441 16.0494 42.8932 16.6796 43.5871 17.1127C44.3336 17.5238 45.1718 17.7393 46.0239 17.7393C46.8761 17.7393 47.7144 17.5238 48.4608 17.1127C49.1552 16.6818 49.7035 16.0516 50.0341 15.3043C50.4257 14.4074 50.6152 13.4352 50.5891 12.4569C50.6188 11.4876 50.4309 10.5241 50.0393 9.63705M47.5341 14.9067C47.3321 15.1999 47.0517 15.4306 46.725 15.5723C46.5053 15.6607 46.2703 15.7053 46.0334 15.7037C45.7925 15.7055 45.5535 15.6603 45.3298 15.5706C45.193 15.5141 45.064 15.4403 44.946 15.351C44.6009 15.0727 44.3459 14.6985 44.213 14.2756C44.0228 13.6889 43.9374 13.0732 43.9606 12.4569C43.9019 11.6155 44.1035 10.7765 44.538 10.0537C44.7374 9.76656 45.0136 9.54128 45.335 9.40364C45.558 9.3136 45.7965 9.26837 46.0369 9.27052C46.2813 9.26795 46.5239 9.31317 46.7509 9.40364C46.8843 9.45877 47.0103 9.53019 47.1261 9.61629C47.4673 9.88773 47.7216 10.2532 47.8575 10.6675C48.049 11.2434 48.1379 11.8484 48.1202 12.4551C48.1863 13.3112 47.9865 14.1668 47.548 14.9049" fill="white"/>
<path d="M54.3164 7.35962H51.832V17.6344H54.3164V7.35962Z" fill="white"/>
<path d="M62.8295 7.35803L60.5318 14.8821H60.4471L58.1477 7.35803H55.3711L58.8289 17.6397H62.1345L65.6026 7.36494L62.8295 7.35803Z" fill="white"/>
</svg>
