<svg width="64" height="56" viewBox="0 0 64 56" fill="none" xmlns="http://www.w3.org/2000/svg">
<path fill-rule="evenodd" clip-rule="evenodd" d="M37.8558 37.4974C37.5619 37.9264 37.0136 38.0115 36.6264 37.6863C36.2366 37.3588 36.1576 36.7394 36.45 36.3028L37.1558 36.8957C36.45 36.3028 36.4502 36.3024 36.4505 36.302L36.451 36.3012L36.4521 36.2995L36.4546 36.2958L36.4607 36.2869C36.4653 36.2804 36.4707 36.2726 36.4772 36.2636C36.49 36.2455 36.5067 36.2228 36.5273 36.1959C36.5683 36.1423 36.625 36.0721 36.6974 35.991C36.8418 35.8293 37.0516 35.6211 37.3282 35.4146C37.8846 34.9992 38.7138 34.5898 39.8029 34.5898C40.892 34.5898 41.7212 34.9992 42.2776 35.4146C42.5541 35.6211 42.764 35.8293 42.9084 35.991C42.9808 36.0721 43.0375 36.1423 43.0785 36.1959C43.099 36.2228 43.1157 36.2455 43.1286 36.2636C43.135 36.2726 43.1405 36.2804 43.145 36.2869L43.1511 36.2958L43.1536 36.2995L43.1548 36.3012L43.1553 36.302C43.1556 36.3024 43.1558 36.3028 42.4499 36.8957L43.1558 36.3028C43.4482 36.7394 43.3692 37.3588 42.9793 37.6863C42.5921 38.0115 42.0439 37.9264 41.75 37.4974C41.7484 37.4952 41.7447 37.4901 41.7386 37.4822C41.7245 37.4637 41.6985 37.431 41.6606 37.3886C41.5844 37.3032 41.4634 37.1821 41.2987 37.0591C40.9728 36.8158 40.4785 36.5663 39.8029 36.5663C39.1273 36.5663 38.6329 36.8158 38.307 37.0591C38.1424 37.1821 38.0214 37.3032 37.9452 37.3886C37.9073 37.431 37.8812 37.4637 37.8671 37.4822C37.8611 37.4901 37.8573 37.4952 37.8558 37.4974ZM51.3851 37.4974C51.0912 37.9264 50.543 38.0115 50.1558 37.6863C49.7659 37.3588 49.6869 36.7394 49.9793 36.3028L50.6852 36.8957C49.9793 36.3028 49.9796 36.3024 49.9798 36.302L49.9803 36.3012L49.9815 36.2995L49.984 36.2958L49.9901 36.2869C49.9946 36.2804 50.0001 36.2726 50.0065 36.2636C50.0194 36.2455 50.0361 36.2228 50.0566 36.1959C50.0976 36.1423 50.1543 36.0721 50.2267 35.991C50.3711 35.8293 50.581 35.6211 50.8575 35.4146C51.4139 34.9992 52.2431 34.5898 53.3322 34.5898C54.4213 34.5898 55.2505 34.9992 55.8069 35.4146C56.0835 35.6211 56.2934 35.8293 56.4377 35.991C56.5102 36.0721 56.5668 36.1423 56.6078 36.1959C56.6284 36.2228 56.6451 36.2455 56.6579 36.2636C56.6644 36.2726 56.6698 36.2804 56.6744 36.2869L56.6805 36.2958L56.683 36.2995L56.6841 36.3012L56.6846 36.302C56.6849 36.3024 56.6852 36.3028 55.9793 36.8957L56.6852 36.3028C56.9775 36.7394 56.8985 37.3588 56.5087 37.6863C56.1215 38.0115 55.5732 37.9264 55.2793 37.4974C55.2778 37.4952 55.274 37.49 55.268 37.4822C55.2539 37.4637 55.2278 37.431 55.1899 37.3886C55.1137 37.3032 54.9927 37.1821 54.8281 37.0591C54.5022 36.8158 54.0078 36.5663 53.3322 36.5663C52.6566 36.5663 52.1623 36.8158 51.8364 37.0591C51.6717 37.1821 51.5507 37.3032 51.4745 37.3886C51.4367 37.431 51.4106 37.4637 51.3965 37.4822C51.3905 37.49 51.3867 37.4952 51.3851 37.4974Z" fill="url(#paint0_linear_6155_62119)" style=""/>
<path d="M39.3554 45.0949C39.5022 44.9363 39.7367 44.9319 39.8884 45.0826C41.0246 46.2103 43.0674 47.5709 45.4721 47.9664C47.8571 48.3586 50.6133 47.8061 53.237 45.0886C53.3863 44.934 53.6208 44.934 53.7701 45.0886C53.929 45.2531 53.929 45.5269 53.7701 45.6914L54.1298 46.0387L53.7701 45.6914C50.9617 48.6002 47.9611 49.22 45.3566 48.7916C42.772 48.3666 40.5931 46.9141 39.3673 45.6975C39.2058 45.5371 39.1994 45.2635 39.3554 45.0949L38.9884 44.7553L39.3554 45.0949Z" fill="url(#paint1_linear_6155_62119)" stroke="url(#paint2_linear_6155_62119)" style=""/>
<path d="M16.9227 6.99317L16.9227 7.49317L17.4227 7.49317L31.3312 7.49317L31.8312 7.49317L31.8312 6.99317L31.8312 3.49659C31.8312 1.90231 33.1413 0.5 34.8084 0.5C36.3768 0.5 37.7855 1.91253 37.7855 3.49659L37.7855 6.99317L37.7855 7.49317L38.2855 7.49317L43.5012 7.49317C46.0476 7.49317 48.2169 9.67058 48.2169 12.238L48.2169 16.9829L0.537109 16.9829L0.537109 12.238C0.537109 9.66376 2.60448 7.49317 5.2528 7.49317L10.4685 7.49317L10.9685 7.49317L10.9685 6.99317L10.9685 3.49659C10.9685 1.90231 12.2785 0.5 13.9456 0.5C15.5141 0.5 16.9227 1.91253 16.9227 3.49659L16.9227 6.99317ZM40.7659 21.4795C32.9309 24.0881 27.3541 31.5048 27.3541 40.2107C27.3541 46.3744 30.073 51.8882 34.4039 55.4454L5.2528 55.4454C2.59774 55.4454 0.537109 53.3772 0.537109 50.7005L0.537109 21.4795L40.7659 21.4795ZM39.4102 53.4394L39.4059 53.4369C34.6718 50.6864 31.8312 45.7164 31.8312 40.2107C31.8312 34.8163 34.6702 29.8453 39.406 27.0938L39.4102 27.0913C44.0314 24.3453 49.8127 24.342 54.5485 27.0925C59.1829 29.8474 62.1254 34.8224 62.1254 40.2107C62.1254 45.7102 59.1813 50.6843 54.5486 53.4381C49.8128 56.1887 44.0314 56.1854 39.4102 53.4394Z" fill="url(#paint3_linear_6155_62119)" stroke="url(#paint4_linear_6155_62119)" style=""/>
<defs>
<linearGradient id="paint0_linear_6155_62119" x1="37.8824" y1="33.2397" x2="38.7266" y2="43.8541" gradientUnits="userSpaceOnUse">
<stop stop-color="#505052" style="stop-color:#505052;stop-color:color(display-p3 0.3123 0.3153 0.3213);stop-opacity:1;"/>
<stop offset="0.8" stop-color="#424242" stop-opacity="0" style="stop-color:none;stop-opacity:0;"/>
<stop offset="1" stop-color="#505052" style="stop-color:#505052;stop-color:color(display-p3 0.3137 0.3137 0.3216);stop-opacity:1;"/>
</linearGradient>
<linearGradient id="paint1_linear_6155_62119" x1="36.976" y1="28.1131" x2="51.567" y2="72.2831" gradientUnits="userSpaceOnUse">
<stop stop-color="#505052" style="stop-color:#505052;stop-color:color(display-p3 0.3123 0.3153 0.3213);stop-opacity:1;"/>
<stop offset="0.8" stop-color="#424242" stop-opacity="0" style="stop-color:none;stop-opacity:0;"/>
<stop offset="1" stop-color="#505052" style="stop-color:#505052;stop-color:color(display-p3 0.3137 0.3137 0.3216);stop-opacity:1;"/>
</linearGradient>
<linearGradient id="paint2_linear_6155_62119" x1="46.5657" y1="44.4727" x2="46.5657" y2="49.4138" gradientUnits="userSpaceOnUse">
<stop stop-color="#353535" style="stop-color:#353535;stop-color:color(display-p3 0.2078 0.2078 0.2078);stop-opacity:1;"/>
<stop offset="0.8" stop-color="#121212" stop-opacity="0" style="stop-color:none;stop-opacity:0;"/>
<stop offset="1" stop-color="#353535" style="stop-color:#353535;stop-color:color(display-p3 0.2078 0.2078 0.2078);stop-opacity:1;"/>
</linearGradient>
<linearGradient id="paint3_linear_6155_62119" x1="-5.96365" y1="6.40644e-07" x2="61.6647" y2="63.423" gradientUnits="userSpaceOnUse">
<stop stop-color="#424752" style="stop-color:#424752;stop-color:color(display-p3 0.2588 0.2784 0.3216);stop-opacity:1;"/>
<stop offset="0.75" stop-color="#424752" stop-opacity="0" style="stop-color:none;stop-opacity:0;"/>
<stop offset="1" stop-color="#424752" style="stop-color:#424752;stop-color:color(display-p3 0.2588 0.2784 0.3216);stop-opacity:1;"/>
</linearGradient>
<linearGradient id="paint4_linear_6155_62119" x1="3.5" y1="11.5" x2="54.5" y2="51" gradientUnits="userSpaceOnUse">
<stop stop-color="#383B45" style="stop-color:#383B45;stop-color:color(display-p3 0.2196 0.2314 0.2706);stop-opacity:1;"/>
<stop offset="0.8" stop-color="#131315" stop-opacity="0" style="stop-color:none;stop-opacity:0;"/>
<stop offset="1" stop-color="#383B45" style="stop-color:#383B45;stop-color:color(display-p3 0.2196 0.2314 0.2706);stop-opacity:1;"/>
</linearGradient>
</defs>
</svg>
