<svg width="59" height="58" viewBox="0 0 59 58" fill="none" xmlns="http://www.w3.org/2000/svg">
<g id="Union">
<path fill-rule="evenodd" clip-rule="evenodd" d="M24.0907 16.1805C20.7101 18.1244 18.6817 21.674 18.6817 25.4771C18.6817 29.3648 20.7101 32.9144 24.0907 34.8582C27.3867 36.8021 31.5279 36.8021 34.9085 34.8582C38.2046 32.9144 40.3174 29.3648 40.3174 25.4771C40.3174 21.674 38.2046 18.1244 34.9085 16.1805C31.5279 14.2367 27.3867 14.2367 24.0907 16.1805ZM32.8802 19.6456C34.9085 20.9133 36.2607 23.1107 36.2607 25.4771C36.2607 27.928 34.9085 30.1254 32.8802 31.3931C30.7673 32.5763 28.1474 32.5763 26.119 31.3931C24.0062 30.1254 22.7384 27.928 22.7384 25.4771C22.7384 23.1107 24.0062 20.9133 26.119 19.6456C28.1474 18.4624 30.7673 18.4624 32.8802 19.6456Z" fill="url(#paint0_linear_6361_50887)" style=""/>
<path fill-rule="evenodd" clip-rule="evenodd" d="M53.0219 0.0683594H5.97728C2.93476 0.0683594 0.568359 2.51928 0.568359 5.47728V52.5219C0.568359 55.5644 2.93476 57.9308 5.97728 57.9308H53.0219C55.9799 57.9308 58.4308 55.5644 58.4308 52.5219V5.47728C58.4308 2.51928 55.9799 0.0683594 53.0219 0.0683594ZM5.97728 4.12505H53.0219C53.698 4.12505 54.3741 4.80117 54.3741 5.47728V52.5219C54.3741 53.2825 53.698 53.8741 53.0219 53.8741H48.347C47.5474 46.2646 41.1273 40.3517 33.3027 40.3517H25.6119C17.7874 40.3517 11.4411 46.2646 10.6512 53.8741H5.97728C5.21665 53.8741 4.62505 53.2825 4.62505 52.5219V5.47728C4.62505 4.80117 5.21665 4.12505 5.97728 4.12505ZM44.2051 53.874H14.7096C15.4702 48.5496 20.034 44.4084 25.6119 44.4084H33.3027C38.8807 44.4084 43.4445 48.5496 44.2051 53.874Z" fill="url(#paint1_linear_6361_50887)" style=""/>
</g>
<defs>
<linearGradient id="paint0_linear_6361_50887" x1="-4.97929" y1="0.0683601" x2="63.9786" y2="57.9306" gradientUnits="userSpaceOnUse">
<stop stop-color="#424752" style="stop-color:#424752;stop-color:color(display-p3 0.2588 0.2784 0.3216);stop-opacity:1;"/>
<stop offset="0.75" stop-color="#424752" stop-opacity="0" style="stop-color:none;stop-opacity:0;"/>
<stop offset="1" stop-color="#424752" style="stop-color:#424752;stop-color:color(display-p3 0.2588 0.2784 0.3216);stop-opacity:1;"/>
</linearGradient>
<linearGradient id="paint1_linear_6361_50887" x1="-4.97929" y1="0.0683601" x2="63.9786" y2="57.9306" gradientUnits="userSpaceOnUse">
<stop stop-color="#424752" style="stop-color:#424752;stop-color:color(display-p3 0.2588 0.2784 0.3216);stop-opacity:1;"/>
<stop offset="0.75" stop-color="#424752" stop-opacity="0" style="stop-color:none;stop-opacity:0;"/>
<stop offset="1" stop-color="#424752" style="stop-color:#424752;stop-color:color(display-p3 0.2588 0.2784 0.3216);stop-opacity:1;"/>
</linearGradient>
</defs>
</svg>
