<svg width="64" height="56" viewBox="0 0 64 56" fill="none" xmlns="http://www.w3.org/2000/svg">
<path d="M16.9247 6.99317L16.9247 7.49317L17.4247 7.49317L31.3332 7.49317L31.8332 7.49317L31.8332 6.99317L31.8332 3.49659C31.8332 1.90231 33.1432 0.5 34.8103 0.5C36.3788 0.5 37.7874 1.91253 37.7874 3.49659L37.7874 6.99317L37.7874 7.49317L38.2874 7.49317L43.5031 7.49317C46.0495 7.49317 48.2188 9.67058 48.2188 12.238L48.2188 16.9829L0.539063 16.9829L0.539063 12.238C0.539063 9.66376 2.60643 7.49317 5.25475 7.49317L10.4704 7.49317L10.9704 7.49317L10.9704 6.99317L10.9704 3.49659C10.9704 1.90231 12.2805 0.5 13.9476 0.5C15.516 0.5 16.9247 1.91253 16.9247 3.49659L16.9247 6.99317ZM40.7678 21.4795C32.9328 24.0881 27.3561 31.5048 27.3561 40.2107C27.3561 46.3744 30.0749 51.8882 34.4058 55.4454L5.25475 55.4454C2.5997 55.4454 0.539063 53.3772 0.539063 50.7005L0.539063 21.4795L40.7678 21.4795ZM39.4121 53.4394L39.4079 53.4369C34.6738 50.6864 31.8332 45.7164 31.8332 40.2107C31.8332 34.8163 34.6721 29.8453 39.4079 27.0938L39.4121 27.0913C44.0333 24.3453 49.8147 24.342 54.5504 27.0925C59.1849 29.8474 62.1273 34.8224 62.1273 40.2107C62.1273 45.7102 59.1833 50.6843 54.5506 53.4381C49.8148 56.1887 44.0334 56.1854 39.4121 53.4394Z" fill="url(#paint0_linear_6155_62578)" stroke="url(#paint1_linear_6155_62578)" style=""/>
<path fill-rule="evenodd" clip-rule="evenodd" d="M36.6264 37.6863C37.0136 38.0115 37.5619 37.9264 37.8558 37.4974C37.8573 37.4952 37.8611 37.4901 37.8671 37.4822C37.8812 37.4637 37.9073 37.431 37.9452 37.3886C38.0214 37.3032 38.1424 37.1821 38.307 37.0591C38.6329 36.8158 39.1273 36.5663 39.8029 36.5663C40.4785 36.5663 40.9728 36.8158 41.2987 37.0591C41.4634 37.1821 41.5844 37.3032 41.6606 37.3886C41.6985 37.431 41.7245 37.4637 41.7386 37.4822C41.7447 37.4901 41.7484 37.4952 41.75 37.4974C42.0439 37.9264 42.5921 38.0115 42.9793 37.6863C43.3692 37.3588 43.4482 36.7394 43.1558 36.3028L42.4499 36.8957C43.1558 36.3028 43.1556 36.3024 43.1553 36.302L43.1548 36.3012L43.1536 36.2995L43.1511 36.2958L43.145 36.2869L43.1286 36.2636C43.1157 36.2455 43.099 36.2228 43.0785 36.1959C43.0375 36.1423 42.9808 36.0721 42.9084 35.991C42.764 35.8293 42.5541 35.6211 42.2776 35.4146C41.7212 34.9992 40.892 34.5898 39.8029 34.5898C38.7138 34.5898 37.8846 34.9992 37.3282 35.4146C37.0516 35.6211 36.8418 35.8293 36.6974 35.991C36.625 36.0721 36.5683 36.1423 36.5273 36.1959C36.5067 36.2228 36.49 36.2455 36.4772 36.2636L36.4607 36.2869L36.4546 36.2958L36.4521 36.2995L36.451 36.3012L36.4505 36.302C36.4502 36.3024 36.45 36.3028 37.1558 36.8957L36.45 36.3028C36.1576 36.7394 36.2366 37.3588 36.6264 37.6863ZM50.1558 37.6863C50.543 38.0115 51.0912 37.9264 51.3851 37.4974C51.3867 37.4952 51.3905 37.49 51.3965 37.4822C51.4106 37.4637 51.4367 37.431 51.4745 37.3886C51.5507 37.3032 51.6717 37.1821 51.8364 37.0591C52.1623 36.8158 52.6566 36.5663 53.3322 36.5663C54.0078 36.5663 54.5022 36.8158 54.8281 37.0591C54.9927 37.1821 55.1137 37.3032 55.1899 37.3886C55.2278 37.431 55.2539 37.4637 55.268 37.4822C55.274 37.49 55.2778 37.4952 55.2793 37.4974C55.5732 37.9264 56.1215 38.0115 56.5087 37.6863C56.8985 37.3588 56.9775 36.7394 56.6852 36.3028L55.9793 36.8957C56.6852 36.3028 56.6849 36.3024 56.6846 36.302L56.6841 36.3012L56.683 36.2995L56.6805 36.2958L56.6744 36.2869L56.6579 36.2636C56.6451 36.2455 56.6284 36.2228 56.6078 36.1959C56.5668 36.1423 56.5102 36.0721 56.4377 35.991C56.2934 35.8293 56.0835 35.6211 55.8069 35.4146C55.2505 34.9992 54.4213 34.5898 53.3322 34.5898C52.2431 34.5898 51.4139 34.9992 50.8575 35.4146C50.581 35.6211 50.3711 35.8293 50.2267 35.991C50.1543 36.0721 50.0976 36.1423 50.0566 36.1959C50.0361 36.2228 50.0194 36.2455 50.0065 36.2636L49.9901 36.2869L49.984 36.2958L49.9815 36.2995L49.9803 36.3012L49.9798 36.302C49.9796 36.3024 49.9793 36.3028 50.6852 36.8957L49.9793 36.3028C49.6869 36.7394 49.7659 37.3588 50.1558 37.6863ZM40.2417 44.7277C39.8885 44.3771 39.3278 44.3895 38.9894 44.7553C38.651 45.1211 38.6629 45.7018 39.016 46.0523C40.2969 47.3237 42.566 48.8393 45.2764 49.285C48.0392 49.7394 51.2057 49.0683 54.1308 46.0387C54.4767 45.6804 54.4767 45.0996 54.1308 44.7413C53.7849 44.3831 53.2242 44.3831 52.8783 44.7413C50.3712 47.3381 47.7807 47.8392 45.5542 47.473C43.2752 47.0982 41.3226 45.8006 40.2417 44.7277Z" fill="url(#paint2_linear_6155_62578)" style=""/>
<defs>
<linearGradient id="paint0_linear_6155_62578" x1="-5.9617" y1="6.40644e-07" x2="61.6666" y2="63.423" gradientUnits="userSpaceOnUse">
<stop stop-color="#E7E8EC" style="stop-color:#E7E8EC;stop-color:color(display-p3 0.9059 0.9098 0.9255);stop-opacity:1;"/>
<stop offset="1" stop-color="white" style="stop-color:white;stop-opacity:1;"/>
</linearGradient>
<linearGradient id="paint1_linear_6155_62578" x1="22.948" y1="1.52347e-07" x2="36.5554" y2="56.7583" gradientUnits="userSpaceOnUse">
<stop offset="0.6" stop-color="#E7E8EC" style="stop-color:#E7E8EC;stop-color:color(display-p3 0.9059 0.9098 0.9255);stop-opacity:1;"/>
<stop offset="1" stop-color="white" style="stop-color:white;stop-opacity:1;"/>
</linearGradient>
<linearGradient id="paint2_linear_6155_62578" x1="34.2995" y1="34.5898" x2="52.0305" y2="55.2532" gradientUnits="userSpaceOnUse">
<stop stop-color="#D9DBE1" style="stop-color:#D9DBE1;stop-color:color(display-p3 0.8510 0.8588 0.8824);stop-opacity:1;"/>
<stop offset="0.8" stop-color="#E7E8EC" stop-opacity="0" style="stop-color:none;stop-opacity:0;"/>
<stop offset="1" stop-color="#D9DBE1" style="stop-color:#D9DBE1;stop-color:color(display-p3 0.8510 0.8588 0.8824);stop-opacity:1;"/>
</linearGradient>
</defs>
</svg>
