<svg width="59" height="56" viewBox="0 0 59 56" fill="none" xmlns="http://www.w3.org/2000/svg">
<g id="Group 1000002472">
<path id="search" d="M43.0547 32.5938C43.0547 35.2891 42.1758 37.8086 40.7109 39.8008L48.0938 47.2422C48.8555 47.9453 48.8555 49.1758 48.0938 49.8789C47.3906 50.6406 46.1602 50.6406 45.457 49.8789L38.0156 42.4375C36.0234 43.9609 33.5039 44.7812 30.8672 44.7812C24.1289 44.7812 18.6797 39.332 18.6797 32.5938C18.6797 25.9141 24.1289 20.4062 30.8672 20.4062C37.5469 20.4062 43.0547 25.9141 43.0547 32.5938ZM30.8672 41.0312C33.8555 41.0312 36.6094 39.4492 38.1328 36.8125C39.6562 34.2344 39.6562 31.0117 38.1328 28.375C36.6094 25.7969 33.8555 24.1562 30.8672 24.1562C27.8203 24.1562 25.0664 25.7969 23.543 28.375C22.0195 31.0117 22.0195 34.2344 23.543 36.8125C25.0664 39.4492 27.8203 41.0312 30.8672 41.0312Z" fill="#8B5EE5"/>
<path id="question" d="M48.4844 12.5312C48.4844 13.3223 47.8252 13.9375 47.0781 13.9375C46.2871 13.9375 45.6719 13.3223 45.6719 12.5312C45.6719 9.45508 48.1768 6.90625 51.2969 6.90625H52.7031C55.7793 6.90625 58.3281 9.45508 58.3281 12.5312V12.707C58.3281 14.6406 57.3174 16.3984 55.7354 17.4531L53.8896 18.6396C53.582 18.8154 53.4062 19.167 53.4062 19.5186V19.5625C53.4062 20.3535 52.7471 20.9688 52 20.9688C51.209 20.9688 50.5938 20.3535 50.5938 19.5625V19.5186C50.5938 18.2002 51.2529 16.9697 52.3516 16.2666L54.1973 15.0801C54.9883 14.5527 55.5156 13.6738 55.5156 12.707V12.5312C55.5156 10.9932 54.2412 9.71875 52.7031 9.71875H51.2969C49.7148 9.71875 48.4844 10.9932 48.4844 12.5312ZM52 26.5938C51.3408 26.5938 50.7695 26.2861 50.4619 25.7148C50.1543 25.1875 50.1543 24.5283 50.4619 23.957C50.7695 23.4297 51.3408 23.0781 52 23.0781C52.6152 23.0781 53.1865 23.4297 53.4941 23.957C53.8018 24.5283 53.8018 25.1875 53.4941 25.7148C53.1865 26.2861 52.6152 26.5938 52 26.5938Z" fill="#8B5EE5"/>
<path id="question_2" d="M3.48438 41.0312C3.48438 41.8223 2.8252 42.4375 2.07812 42.4375C1.28711 42.4375 0.671875 41.8223 0.671875 41.0312C0.671875 37.9551 3.17676 35.4062 6.29688 35.4062H7.70312C10.7793 35.4062 13.3281 37.9551 13.3281 41.0312V41.207C13.3281 43.1406 12.3174 44.8984 10.7354 45.9531L8.88965 47.1396C8.58203 47.3154 8.40625 47.667 8.40625 48.0186V48.0625C8.40625 48.8535 7.74707 49.4688 7 49.4688C6.20898 49.4688 5.59375 48.8535 5.59375 48.0625V48.0186C5.59375 46.7002 6.25293 45.4697 7.35156 44.7666L9.19727 43.5801C9.98828 43.0527 10.5156 42.1738 10.5156 41.207V41.0312C10.5156 39.4932 9.24121 38.2188 7.70312 38.2188H6.29688C4.71484 38.2188 3.48438 39.4932 3.48438 41.0312ZM7 55.0938C6.34082 55.0938 5.76953 54.7861 5.46191 54.2148C5.1543 53.6875 5.1543 53.0283 5.46191 52.457C5.76953 51.9297 6.34082 51.5781 7 51.5781C7.61523 51.5781 8.18652 51.9297 8.49414 52.457C8.80176 53.0283 8.80176 53.6875 8.49414 54.2148C8.18652 54.7861 7.61523 55.0938 7 55.0938Z" fill="#8B5EE5"/>
<path id="question_3" d="M9.48438 6.53125C9.48438 7.32227 8.8252 7.9375 8.07812 7.9375C7.28711 7.9375 6.67188 7.32227 6.67188 6.53125C6.67188 3.45508 9.17676 0.90625 12.2969 0.90625H13.7031C16.7793 0.90625 19.3281 3.45508 19.3281 6.53125V6.70703C19.3281 8.64062 18.3174 10.3984 16.7354 11.4531L14.8896 12.6396C14.582 12.8154 14.4062 13.167 14.4062 13.5186V13.5625C14.4062 14.3535 13.7471 14.9688 13 14.9688C12.209 14.9688 11.5938 14.3535 11.5938 13.5625V13.5186C11.5938 12.2002 12.2529 10.9697 13.3516 10.2666L15.1973 9.08008C15.9883 8.55273 16.5156 7.67383 16.5156 6.70703V6.53125C16.5156 4.99316 15.2412 3.71875 13.7031 3.71875H12.2969C10.7148 3.71875 9.48438 4.99316 9.48438 6.53125ZM13 20.5938C12.3408 20.5938 11.7695 20.2861 11.4619 19.7148C11.1543 19.1875 11.1543 18.5283 11.4619 17.957C11.7695 17.4297 12.3408 17.0781 13 17.0781C13.6152 17.0781 14.1865 17.4297 14.4941 17.957C14.8018 18.5283 14.8018 19.1875 14.4941 19.7148C14.1865 20.2861 13.6152 20.5938 13 20.5938Z" fill="#8B5EE5"/>
</g>
</svg>
