<svg width="49" height="44" viewBox="0 0 49 44" fill="none" xmlns="http://www.w3.org/2000/svg">
<g id="Vector">
<path d="M4.25 0.625H30.5C32.5508 0.625 34.25 2.32422 34.25 4.375V17.125C34.25 19.2344 32.5508 20.875 30.5 20.875H4.25C2.14062 20.875 0.5 19.2344 0.5 17.125V4.375C0.5 2.32422 2.14062 0.625 4.25 0.625ZM3.125 10.5625C3.125 11.0898 3.53516 11.5 4.0625 11.5H25.8125C26.2812 11.5 26.75 11.0898 26.75 10.5625C26.75 10.0938 26.2812 9.625 25.8125 9.625H4.0625C3.53516 9.625 3.125 10.0938 3.125 10.5625ZM3.125 15.0625C3.125 15.5898 3.53516 16 4.0625 16H29.5625C30.0312 16 30.5 15.5898 30.5 15.0625C30.5 14.5938 30.0312 14.125 29.5625 14.125H4.0625C3.53516 14.125 3.125 14.5938 3.125 15.0625Z" fill="#8B5EE5"/>
<path d="M18.5 23.125H44.75C46.8008 23.125 48.5 24.8242 48.5 26.875V39.625C48.5 41.7344 46.8008 43.375 44.75 43.375H18.5C16.3906 43.375 14.75 41.7344 14.75 39.625V26.875C14.75 24.8242 16.3906 23.125 18.5 23.125ZM17.375 33.0625C17.375 33.5898 17.7852 34 18.3125 34H40.0625C40.5312 34 41 33.5898 41 33.0625C41 32.5938 40.5312 32.125 40.0625 32.125H18.3125C17.7852 32.125 17.375 32.5938 17.375 33.0625ZM17.375 37.5625C17.375 38.0898 17.7852 38.5 18.3125 38.5H43.8125C44.2812 38.5 44.75 38.0898 44.75 37.5625C44.75 37.0938 44.2812 36.625 43.8125 36.625H18.3125C17.7852 36.625 17.375 37.0938 17.375 37.5625Z" fill="#8B5EE5"/>
</g>
</svg>
