<svg width="39" height="42" viewBox="0 0 39 42" fill="none" xmlns="http://www.w3.org/2000/svg">
<g id="Group 1000002475">
<path id="car" d="M8.33203 20.4141L6.80859 24.75H23.9766L22.4531 20.4141C22.2188 19.6523 21.5156 19.125 20.6953 19.125H10.0898C9.26953 19.125 8.56641 19.6523 8.33203 20.4141ZM2.70703 25.043L4.75781 19.1836C5.57812 16.8984 7.6875 15.375 10.0898 15.375H20.6953C23.0977 15.375 25.207 16.8984 26.0273 19.1836L28.0781 25.043C29.4258 25.6289 30.4219 26.9766 30.4219 28.5V36.9375V39.75C30.4219 40.8047 29.543 41.625 28.5469 41.625H26.6719C25.6172 41.625 24.7969 40.8047 24.7969 39.75V36.9375H6.04688V39.75C6.04688 40.8047 5.16797 41.625 4.17188 41.625H2.29688C1.24219 41.625 0.421875 40.8047 0.421875 39.75V36.9375V28.5C0.421875 26.9766 1.35938 25.6289 2.70703 25.043ZM7.92188 30.375C7.92188 29.3789 7.04297 28.5 6.04688 28.5C4.99219 28.5 4.17188 29.3789 4.17188 30.375C4.17188 31.4297 4.99219 32.25 6.04688 32.25C7.04297 32.25 7.92188 31.4297 7.92188 30.375ZM24.7969 32.25C25.793 32.25 26.6719 31.4297 26.6719 30.375C26.6719 29.3789 25.793 28.5 24.7969 28.5C23.7422 28.5 22.9219 29.3789 22.9219 30.375C22.9219 31.4297 23.7422 32.25 24.7969 32.25Z" fill="#8B5EE5"/>
<path id="question" d="M28.7344 6C28.7344 6.79102 28.0752 7.40625 27.3281 7.40625C26.5371 7.40625 25.9219 6.79102 25.9219 6C25.9219 2.92383 28.4268 0.375 31.5469 0.375H32.9531C36.0293 0.375 38.5781 2.92383 38.5781 6V6.17578C38.5781 8.10938 37.5674 9.86719 35.9854 10.9219L34.1396 12.1084C33.832 12.2842 33.6562 12.6357 33.6562 12.9873V13.0312C33.6562 13.8223 32.9971 14.4375 32.25 14.4375C31.459 14.4375 30.8438 13.8223 30.8438 13.0312V12.9873C30.8438 11.6689 31.5029 10.4385 32.6016 9.73535L34.4473 8.54883C35.2383 8.02148 35.7656 7.14258 35.7656 6.17578V6C35.7656 4.46191 34.4912 3.1875 32.9531 3.1875H31.5469C29.9648 3.1875 28.7344 4.46191 28.7344 6ZM32.25 20.0625C31.5908 20.0625 31.0195 19.7549 30.7119 19.1836C30.4043 18.6562 30.4043 17.9971 30.7119 17.4258C31.0195 16.8984 31.5908 16.5469 32.25 16.5469C32.8652 16.5469 33.4365 16.8984 33.7441 17.4258C34.0518 17.9971 34.0518 18.6562 33.7441 19.1836C33.4365 19.7549 32.8652 20.0625 32.25 20.0625Z" fill="#8B5EE5"/>
</g>
</svg>
