<svg width="39" height="30" viewBox="0 0 39 30" fill="none" xmlns="http://www.w3.org/2000/svg">
<path id="user-xmark" d="M6.38965 7.47803C6.38965 4.84131 7.7959 2.38037 10.1396 1.03271C12.4248 -0.314941 15.2959 -0.314941 17.6396 1.03271C19.9248 2.38037 21.3896 4.84131 21.3896 7.47803C21.3896 10.1733 19.9248 12.6343 17.6396 13.9819C15.2959 15.3296 12.4248 15.3296 10.1396 13.9819C7.7959 12.6343 6.38965 10.1733 6.38965 7.47803ZM0.764648 28.2788C0.764648 22.478 5.39355 17.7905 11.1943 17.7905H16.5264C22.3271 17.7905 27.0146 22.478 27.0146 28.2788C27.0146 29.2163 26.1943 29.978 25.2568 29.978H2.46387C1.52637 29.978 0.764648 29.2163 0.764648 28.2788ZM28.3623 8.35693C28.8896 7.82959 29.7686 7.82959 30.2959 8.35693L33.0498 11.1108L35.8037 8.35693C36.3896 7.82959 37.2686 7.82959 37.7959 8.35693C38.3818 8.94287 38.3818 9.82178 37.7959 10.3491L35.042 13.103L37.7959 15.8569C38.3818 16.4429 38.3818 17.3218 37.7959 17.8491C37.2686 18.4351 36.3896 18.4351 35.8037 17.8491L33.0498 15.0952L30.2959 17.8491C29.7686 18.4351 28.8896 18.4351 28.3623 17.8491C27.7764 17.3218 27.7764 16.4429 28.3623 15.8569L31.1162 13.103L28.3623 10.3491C27.7764 9.82178 27.7764 8.94287 28.3623 8.35693Z" fill="#8B5EE5"/>
</svg>
