<svg width="35" height="30" viewBox="0 0 35 30" fill="none" xmlns="http://www.w3.org/2000/svg">
<path id="triangle-exclamation" d="M17.5332 0C18.4638 0 19.328 0.535714 19.7933 1.33929L34.151 25.9821C34.6163 26.8527 34.6163 27.8571 34.151 28.6607C33.6857 29.5312 32.8216 30 31.891 30H3.17546C2.1784 30 1.31427 29.5312 0.848974 28.6607C0.383675 27.8571 0.383675 26.8527 0.848974 25.9821L15.2067 1.33929C15.672 0.535714 16.5362 0 17.5332 0ZM17.5332 8.57143C16.6026 8.57143 15.9379 9.30804 15.9379 10.1786V17.6786C15.9379 18.6161 16.6026 19.2857 17.5332 19.2857C18.3974 19.2857 19.1285 18.6161 19.1285 17.6786V10.1786C19.1285 9.30804 18.3974 8.57143 17.5332 8.57143ZM19.6603 23.5714C19.6603 22.433 18.6632 21.4286 17.5332 21.4286C16.3368 21.4286 15.4062 22.433 15.4062 23.5714C15.4062 24.7768 16.3368 25.7143 17.5332 25.7143C18.6632 25.7143 19.6603 24.7768 19.6603 23.5714Z" fill="#8B5EE5"/>
</svg>
