<svg width="50" height="48" viewBox="0 0 50 48" fill="none" xmlns="http://www.w3.org/2000/svg">
<g id="Vector">
<path d="M40.9575 15.1824C38.1762 -7.27402 15.7533 0.935475 8.3213 4.08445C6.60671 4.81093 5.48983 5.52657 4.3684 7.05928C-2.50554 16.4543 0.117217 27.6487 9.57714 37.991C19.7104 49.0694 44.2263 41.575 40.9575 15.1824Z" fill="#EFEFEF"/>
<path d="M43.2897 29.0825C41.899 17.2834 30.6875 21.5969 26.9715 23.2514C26.1142 23.6331 25.5558 24.0091 24.9951 24.8145C21.5581 29.7508 22.8695 35.6326 27.5995 41.0667C32.6661 46.8876 44.924 42.9499 43.2897 29.0825Z" fill="#EFEFEF"/>
<path d="M49.9246 8.43967C49.3286 3.49164 44.5237 5.30052 42.9312 5.99436C42.5637 6.15443 42.3244 6.31211 42.0841 6.64983C40.6111 8.71991 41.1731 11.1865 43.2003 13.4653C45.3717 15.9063 50.6251 14.255 49.9246 8.43967Z" fill="#EFEFEF"/>
<path d="M27.9772 47.3707C30.4736 46.3933 28.911 44.3248 28.344 43.6523C28.2132 43.4972 28.1002 43.4036 27.8935 43.3346C26.6262 42.9117 25.416 43.5268 24.4931 44.8235C23.5045 46.2124 25.0432 48.5194 27.9772 47.3707Z" fill="#EFEFEF"/>
</g>
</svg>
