<svg width="33" height="32" viewBox="0 0 33 32" fill="none" xmlns="http://www.w3.org/2000/svg">
<g id="qrcode">
<path d="M0 3.82143C0 2.02232 1.54688 0.5 3.53571 0.5H10.6071C12.5223 0.5 14.1429 2.02232 14.1429 3.82143V10.4643C14.1429 12.3326 12.5223 13.7857 10.6071 13.7857H3.53571C1.54688 13.7857 0 12.3326 0 10.4643V3.82143ZM4.71429 4.92857V9.35714H9.42857V4.92857H4.71429ZM0 21.5357C0 19.7366 1.54688 18.2143 3.53571 18.2143H10.6071C12.5223 18.2143 14.1429 19.7366 14.1429 21.5357V28.1786C14.1429 30.0469 12.5223 31.5 10.6071 31.5H3.53571C1.54688 31.5 0 30.0469 0 28.1786V21.5357ZM4.71429 22.6429V27.0714H9.42857V22.6429H4.71429ZM22.3929 0.5H29.4643C31.3795 0.5 33 2.02232 33 3.82143V10.4643C33 12.3326 31.3795 13.7857 29.4643 13.7857H22.3929C20.404 13.7857 18.8571 12.3326 18.8571 10.4643V3.82143C18.8571 2.02232 20.404 0.5 22.3929 0.5ZM28.2857 4.92857H23.5714V9.35714H28.2857V4.92857Z" fill="#8B5EE5"/>
<path d="M23.5 20.5078C22.9727 19.9805 22.0938 19.9805 21.5664 20.5078C20.9805 21.0938 20.9805 21.9727 21.5664 22.5L24.3203 25.2539L21.5664 28.0078C20.9805 28.5938 20.9805 29.4727 21.5664 30C22.0938 30.5859 22.9727 30.5859 23.5 30L26.2539 27.2461L29.0078 30C29.5938 30.5859 30.4727 30.5859 31 30C31.5859 29.4727 31.5859 28.5938 31 28.0078L28.2461 25.2539L31 22.5C31.5859 21.9727 31.5859 21.0938 31 20.5078C30.4727 19.9805 29.5938 19.9805 29.0078 20.5078L26.2539 23.2617L23.5 20.5078Z" fill="#8B5EE5"/>
</g>
</svg>
