<svg width="31" height="32" viewBox="0 0 31 32" fill="none" xmlns="http://www.w3.org/2000/svg">
<g id="Group 1000002472">
<path id="search" d="M24.8828 13.1655C24.8828 15.8608 24.0039 18.3804 22.5391 20.3726L29.9219 27.814C30.6836 28.5171 30.6836 29.7476 29.9219 30.4507C29.2188 31.2124 27.9883 31.2124 27.2852 30.4507L19.8438 23.0093C17.8516 24.5327 15.332 25.353 12.6953 25.353C5.95703 25.353 0.507812 19.9038 0.507812 13.1655C0.507812 6.48584 5.95703 0.978027 12.6953 0.978027C19.375 0.978027 24.8828 6.48584 24.8828 13.1655ZM12.6953 21.603C15.6836 21.603 18.4375 20.021 19.9609 17.3843C21.4844 14.8062 21.4844 11.5835 19.9609 8.94678C18.4375 6.36865 15.6836 4.72803 12.6953 4.72803C9.64844 4.72803 6.89453 6.36865 5.37109 8.94678C3.84766 11.5835 3.84766 14.8062 5.37109 17.3843C6.89453 20.021 9.64844 21.603 12.6953 21.603Z" fill="#8B5EE5"/>
</g>
</svg>
