<svg width="126" height="25" viewBox="0 0 126 25" fill="none" xmlns="http://www.w3.org/2000/svg">
<g clip-path="url(#clip0_2355_36988)">
<path d="M0 19.1733C0.0547091 18.2677 0.109418 16.9244 0.109418 15.7446V0H2.49602V8.03774H2.55073C3.00866 7.25482 3.67313 6.61296 4.4714 6.18237C5.26968 5.75179 6.17102 5.54908 7.07679 5.59642C10.3677 5.59642 12.699 8.33896 12.6726 12.3707C12.6726 17.1169 9.68159 19.4752 6.72086 19.4752C5.81962 19.5266 4.9225 19.3189 4.13551 18.8767C3.34853 18.4345 2.70458 17.7763 2.27976 16.9798H2.19416L2.08474 19.1739L0 19.1733ZM2.49602 13.8524C2.50383 14.1479 2.54047 14.4419 2.60544 14.7303C2.80639 15.5381 3.27215 16.2553 3.92837 16.7674C4.5846 17.2796 5.39348 17.5572 6.2259 17.5558C8.7496 17.5558 10.2583 15.4962 10.2583 12.4537C10.2583 9.79358 8.88669 7.51703 6.30828 7.51703C5.45386 7.53225 4.62883 7.83153 3.96336 8.36763C3.29789 8.90374 2.82986 9.64616 2.63312 10.4778C2.55268 10.8011 2.50652 11.1321 2.49538 11.4651L2.49602 13.8524Z" fill="white"/>
<path d="M18.1389 0.000366211H15.7246V19.4742H18.1389V0.000366211Z" fill="white"/>
<path d="M25.1236 7.64117C25.1148 8.09382 24.9289 8.52498 24.6057 8.842C24.2825 9.15903 23.8478 9.33662 23.3951 9.33662C22.9423 9.33662 22.5077 9.15903 22.1845 8.842C21.8613 8.52498 21.6753 8.09382 21.6666 7.64117C21.6607 7.41041 21.7017 7.18086 21.7873 6.96648C21.8729 6.7521 22.0012 6.55737 22.1644 6.39415C22.3277 6.23092 22.5224 6.10261 22.7368 6.01702C22.9512 5.93143 23.1807 5.89034 23.4115 5.89627C23.6413 5.88826 23.8703 5.92817 24.0838 6.01345C24.2974 6.09874 24.4909 6.22754 24.652 6.39165C24.8131 6.55577 24.9382 6.75162 25.0195 6.96673C25.1008 7.18185 25.1358 7.41153 25.1236 7.64117Z" fill="white"/>
<path d="M25.1236 15.6671C25.1148 16.1198 24.9289 16.5509 24.6057 16.868C24.2825 17.185 23.8478 17.3626 23.3951 17.3626C22.9423 17.3626 22.5077 17.185 22.1845 16.868C21.8613 16.5509 21.6753 16.1198 21.6666 15.6671C21.6606 15.4364 21.7017 15.2069 21.7873 14.9925C21.8729 14.7782 22.0013 14.5835 22.1645 14.4203C22.3277 14.2572 22.5225 14.1289 22.7368 14.0434C22.9512 13.9579 23.1807 13.9169 23.4115 13.9229C23.6412 13.9149 23.8702 13.9548 24.0837 14.04C24.2972 14.1253 24.4907 14.254 24.6517 14.418C24.8128 14.5821 24.938 14.7779 25.0193 14.9929C25.1007 15.2079 25.1357 15.4375 25.1236 15.6671Z" fill="white"/>
<path d="M28.6231 9.79163C28.6231 8.42004 28.5954 7.2956 28.5137 6.19885H30.6531L30.7902 8.39301H30.8449C31.2794 7.61636 31.918 6.9733 32.6916 6.53336C33.4651 6.09342 34.3443 5.87337 35.2339 5.89698C37.0708 5.89698 39.9241 6.99116 39.9241 11.5462V19.4745H37.5098V11.8217C37.5098 9.68221 36.7149 7.89998 34.4377 7.89998C33.7055 7.91186 32.9963 8.15783 32.414 8.60188C31.8316 9.04592 31.4067 9.66472 31.2015 10.3677C31.0856 10.731 31.0301 11.1108 31.0374 11.4921V19.4732H28.6231V9.79163Z" fill="white"/>
<path d="M46.2414 12.288H46.2961C46.6257 11.8214 47.091 11.2453 47.4753 10.7794L51.3706 6.19859H54.2785L49.15 11.6573L54.991 19.4742H52.0567L47.4753 13.1112L46.2414 14.4822V19.4736H43.8555V0.000366211H46.2414V12.288Z" fill="white"/>
<path d="M53.8125 0.123779H54.3318L54.9141 1.7737L55.4864 0.123779H56.0006V2.2325H55.649V0.605267L55.0641 2.2325H54.7604L54.1705 0.605267V2.2325H53.8188L53.8125 0.123779Z" fill="white"/>
<path d="M51.8691 0.123779H53.5758V0.442671H52.9052V2.2325H52.5359V0.442671H51.8691V0.123779Z" fill="white"/>
<path d="M66 15.5716C66.0247 15.158 66.0506 14.5431 66.0506 14.0036V6.66736H67.142V10.4799H67.1667C67.3767 10.1229 67.6808 9.83047 68.0457 9.63451C68.4106 9.43856 68.8224 9.34662 69.236 9.36875C70.741 9.36875 71.8065 10.6231 71.7942 12.4665C71.8449 12.8609 71.8135 13.2615 71.702 13.6432C71.5905 14.0248 71.4012 14.3793 71.1461 14.6844C70.8911 14.9894 70.5757 15.2384 70.2197 15.4158C69.8638 15.5931 69.4751 15.6949 69.078 15.7148C68.6658 15.7384 68.2556 15.6435 67.8957 15.4413C67.5358 15.2392 67.2413 14.9382 67.047 14.574H67.0062L66.9556 15.5765L66 15.5716ZM67.1408 13.1381C67.1444 13.2732 67.1614 13.4076 67.1914 13.5394C67.2833 13.9087 67.4964 14.2366 67.7965 14.4707C68.0966 14.7048 68.4665 14.8316 68.8471 14.8308C70.0015 14.8308 70.6904 13.89 70.6904 12.4986C70.6904 11.2824 70.0632 10.2404 68.8841 10.2404C68.4929 10.2477 68.1153 10.3852 67.8109 10.6311C67.5066 10.8771 67.293 11.2175 67.2038 11.5985C67.167 11.7465 67.1459 11.898 67.1408 12.0504V13.1381Z" fill="white"/>
<path d="M73.4985 9.5025L74.8282 13.083C74.9665 13.4842 75.1159 13.9608 75.2171 14.325H75.2418C75.3542 13.9608 75.4801 13.4966 75.6307 13.0583L76.8345 9.49634H78L76.3443 13.8176C75.9615 15.2314 75.248 16.534 74.2627 17.6178C73.88 17.9703 73.4119 18.2167 72.9046 18.3326L72.6293 17.4054C72.9825 17.2886 73.3102 17.1055 73.5948 16.8659C73.9963 16.5324 74.3143 16.1096 74.5232 15.6313C74.5678 15.549 74.5975 15.4596 74.6109 15.367C74.6009 15.2678 74.5755 15.1708 74.5356 15.0794L72.291 9.48645L73.4985 9.5025Z" fill="white"/>
<path d="M87.6105 8.474H82V16.5237H87.6105V14.9427H83.9451V10.0536H87.6105V8.474Z" fill="white"/>
<path d="M87.612 11.7059H85.4043V13.2896H87.612V11.7059Z" fill="white"/>
<path d="M116.059 8.47424H121.669V16.524H116.059V14.943H119.72V10.0539H116.055L116.059 8.47424Z" fill="white"/>
<path d="M118.268 11.7059H116.061V13.2896H118.268V11.7059Z" fill="white"/>
<path d="M94.3264 8.474L92.5275 14.3648H92.4612L90.6609 8.474H88.4844L91.1996 16.5183H93.785L96.5002 8.474H94.3264Z" fill="white"/>
<path d="M103.163 10.2626C102.903 9.6846 102.471 9.20007 101.928 8.87381C101.34 8.56144 100.686 8.39807 100.02 8.39807C99.3553 8.39807 98.7004 8.56144 98.1132 8.87381C97.573 9.20153 97.1442 9.68459 96.8828 10.2599C96.3073 11.6819 96.3073 13.2721 96.8828 14.6942C97.1442 15.2789 97.574 15.7723 98.1173 16.1114C98.7017 16.4332 99.358 16.602 100.025 16.602C100.692 16.602 101.349 16.4332 101.933 16.1114C102.477 15.774 102.906 15.2806 103.165 14.6955C103.471 13.9933 103.62 13.2322 103.599 12.4662C103.623 11.7074 103.475 10.953 103.169 10.2585M101.208 14.3842C101.049 14.6138 100.83 14.7944 100.574 14.9053C100.402 14.9746 100.218 15.0095 100.033 15.0082C99.8439 15.0096 99.6568 14.9742 99.4817 14.904C99.3746 14.8598 99.2736 14.802 99.1812 14.7321C98.9111 14.5142 98.7114 14.2213 98.6073 13.8902C98.4585 13.4308 98.3916 12.9488 98.4097 12.4662C98.3638 11.8075 98.5216 11.1506 98.8618 10.5847C99.0179 10.3599 99.2342 10.1835 99.4858 10.0758C99.6603 10.0053 99.8471 9.96988 100.035 9.97157C100.227 9.96956 100.417 10.005 100.594 10.0758C100.699 10.1189 100.797 10.1749 100.888 10.2423C101.155 10.4548 101.354 10.7409 101.461 11.0653C101.611 11.5162 101.68 11.9899 101.666 12.4648C101.718 13.1351 101.562 13.8049 101.218 14.3829" fill="white"/>
<path d="M106.519 8.47546H104.574V16.5197H106.519V8.47546Z" fill="white"/>
<path d="M113.183 8.47424L111.384 14.365H111.318L109.518 8.47424H107.344L110.051 16.524H112.639L115.354 8.47965L113.183 8.47424Z" fill="white"/>
</g>
<defs>
<clipPath id="clip0_2355_36988">
<rect width="125.67" height="25" fill="white"/>
</clipPath>
</defs>
</svg>
