<svg width="117" height="25" viewBox="0 0 117 25" fill="none" xmlns="http://www.w3.org/2000/svg">
<path d="M5.18848 7.63574H8.70898C10.5615 7.63574 11.8672 8.93457 11.8672 10.8008C11.8672 12.6738 10.5479 13.9795 8.69531 13.9795H6.41895V17.5H5.18848V7.63574ZM6.41895 8.72949V12.8857H8.3877C9.7959 12.8857 10.6025 12.1133 10.6025 10.8008C10.6025 9.49512 9.80273 8.72949 8.3877 8.72949H6.41895ZM15.7021 17.623C13.7334 17.623 12.4072 16.208 12.4072 13.9453C12.4072 11.6758 13.7334 10.2676 15.7021 10.2676C17.6641 10.2676 18.9902 11.6758 18.9902 13.9453C18.9902 16.208 17.6641 17.623 15.7021 17.623ZM15.7021 16.5771C16.96 16.5771 17.7803 15.6201 17.7803 13.9453C17.7803 12.2705 16.96 11.3135 15.7021 11.3135C14.4443 11.3135 13.6172 12.2705 13.6172 13.9453C13.6172 15.6201 14.4443 16.5771 15.7021 16.5771ZM29.2373 10.3906L27.2549 17.5H26.0449L24.4385 11.9971H24.4111L22.8115 17.5H21.6016L19.6123 10.3906H20.7949L22.2168 16.1738H22.2441L23.8506 10.3906H24.999L26.6123 16.1738H26.6396L28.0615 10.3906H29.2373ZM33.0654 11.2998C31.9512 11.2998 31.1719 12.1543 31.0967 13.3369H34.959C34.9316 12.1475 34.1865 11.2998 33.0654 11.2998ZM34.9316 15.4629H36.1006C35.8955 16.707 34.6924 17.623 33.1406 17.623C31.1035 17.623 29.8662 16.208 29.8662 13.9727C29.8662 11.7646 31.124 10.2676 33.0859 10.2676C35.0068 10.2676 36.1895 11.6621 36.1895 13.8154V14.2666H31.0898V14.335C31.0898 15.6953 31.8896 16.5908 33.168 16.5908C34.0703 16.5908 34.7334 16.1328 34.9316 15.4629ZM37.3926 17.5V10.3906H38.5137V11.5527H38.541C38.7734 10.7666 39.4297 10.2676 40.2637 10.2676C40.4688 10.2676 40.6465 10.3018 40.7422 10.3154V11.4707C40.6465 11.4365 40.3936 11.4023 40.1064 11.4023C39.1836 11.4023 38.582 12.0654 38.582 13.0703V17.5H37.3926ZM44.2217 11.2998C43.1074 11.2998 42.3281 12.1543 42.2529 13.3369H46.1152C46.0879 12.1475 45.3428 11.2998 44.2217 11.2998ZM46.0879 15.4629H47.2568C47.0518 16.707 45.8486 17.623 44.2969 17.623C42.2598 17.623 41.0225 16.208 41.0225 13.9727C41.0225 11.7646 42.2803 10.2676 44.2422 10.2676C46.1631 10.2676 47.3457 11.6621 47.3457 13.8154V14.2666H42.2461V14.335C42.2461 15.6953 43.0459 16.5908 44.3242 16.5908C45.2266 16.5908 45.8896 16.1328 46.0879 15.4629ZM51.2422 17.623C49.4307 17.623 48.2002 16.1738 48.2002 13.9453C48.2002 11.7168 49.4238 10.2676 51.2148 10.2676C52.2334 10.2676 53.0537 10.7666 53.4775 11.5459H53.5049V7.63574H54.6943V17.5H53.5596V16.2969H53.5391C53.0811 17.1172 52.2676 17.623 51.2422 17.623ZM51.4678 11.3135C50.21 11.3135 49.417 12.3389 49.417 13.9453C49.417 15.5586 50.21 16.5771 51.4678 16.5771C52.6914 16.5771 53.5117 15.5381 53.5117 13.9453C53.5117 12.3594 52.6914 11.3135 51.4678 11.3135ZM62.7061 17.623C61.667 17.623 60.8535 17.1172 60.3955 16.2969H60.3682V17.5H59.2334V7.63574H60.4229V11.5801H60.4502C60.8945 10.7666 61.7217 10.2676 62.7266 10.2676C64.5176 10.2676 65.7275 11.7168 65.7275 13.9453C65.7275 16.1807 64.5244 17.623 62.7061 17.623ZM62.4736 11.3135C61.2705 11.3135 60.416 12.3662 60.416 13.9453C60.416 15.5312 61.2705 16.5771 62.4736 16.5771C63.7314 16.5771 64.5107 15.5723 64.5107 13.9453C64.5107 12.332 63.7314 11.3135 62.4736 11.3135ZM67.3203 20.1592C67.1768 20.1592 66.9375 20.1455 66.8076 20.1182V19.1201C66.9375 19.1475 67.1221 19.1543 67.2725 19.1543C67.9355 19.1543 68.3047 18.833 68.5781 18.0059L68.7422 17.5068L66.1172 10.3906H67.3887L69.3574 16.3105H69.3779L71.3467 10.3906H72.5977L69.8018 17.999C69.1934 19.6602 68.6055 20.1592 67.3203 20.1592Z" fill="white" style="fill:white;fill-opacity:1;"/>
<mask id="mask0_3571_24684" style="mask-type:luminance" maskUnits="userSpaceOnUse" x="76" y="6" width="37" height="13">
<path d="M112.571 6.5H76V18.5H112.571V6.5Z" fill="white" style="fill:white;fill-opacity:1;"/>
</mask>
<g mask="url(#mask0_3571_24684)">
<path d="M87.353 6.5H88.4076V17.3846C88.4076 17.9314 87.966 18.3744 87.4213 18.3744H86.3667V7.48984C86.3667 6.94313 86.8082 6.5 87.353 6.5Z" fill="white" style="fill:white;fill-opacity:1;"/>
<path d="M94.2036 14.1737C94.2036 11.3332 95.885 9.86937 98.3893 9.86937C100.894 9.86937 102.575 11.3153 102.575 14.1737V17.3846C102.575 17.9314 102.133 18.3745 101.589 18.3745H100.534V14.1737C100.534 12.5555 99.6763 11.7804 98.39 11.7804C97.1036 11.7804 96.2459 12.5555 96.2459 14.1737V17.3846C96.2459 17.9314 95.8044 18.3745 95.2596 18.3745H94.205V14.1737H94.2036Z" fill="white" style="fill:white;fill-opacity:1;"/>
<path d="M105.392 6.5H106.446V13.5886L109.368 10.3571C109.649 10.047 110.047 9.87006 110.464 9.87006H112.416L108.436 14.0365L112.57 18.3751H110.568C110.15 18.3751 109.752 18.1982 109.471 17.8874L106.446 14.5359V17.3853C106.446 17.932 106.004 18.3751 105.459 18.3751H104.405V7.48984C104.405 6.94313 104.846 6.5 105.391 6.5H105.392Z" fill="white" style="fill:white;fill-opacity:1;"/>
<path d="M80.6567 9.79456C78.2604 9.79456 76.3193 11.7427 76.3193 14.1469C76.3193 16.5512 78.2604 18.5 80.6567 18.5C83.053 18.5 84.9934 16.5519 84.9934 14.1469C84.9934 11.742 83.0523 9.79456 80.6567 9.79456ZM80.4148 16.5286C79.1039 16.5286 78.041 15.4626 78.041 14.1462C78.041 12.8299 79.1032 11.7653 80.4148 11.7653C81.7264 11.7653 82.7872 12.8313 82.7872 14.1462C82.7872 15.4612 81.725 16.5286 80.4148 16.5286Z" fill="white" style="fill:white;fill-opacity:1;"/>
<path d="M76.9863 6.5H78.0409V17.3846C78.0409 17.9314 77.5994 18.3744 77.0546 18.3744H76V7.48984C76 6.94313 76.4416 6.5 76.9863 6.5Z" fill="white" style="fill:white;fill-opacity:1;"/>
<path d="M111.187 6.51232V6.69478H110.888V7.63658H110.663V6.69478H110.365V6.51232H111.187Z" fill="white" style="fill:white;fill-opacity:1;"/>
<path d="M112.572 6.51232V7.63658H112.348V6.90535L112.047 7.63658H111.878L111.575 6.90535V7.63658H111.351V6.51232H111.606L111.962 7.3485L112.318 6.51232H112.572Z" fill="white" style="fill:white;fill-opacity:1;"/>
<path d="M91.3053 13.1619C92.1479 13.1619 92.8309 12.4764 92.8309 11.6309C92.8309 10.7853 92.1479 10.0998 91.3053 10.0998C90.4628 10.0998 89.7798 10.7853 89.7798 11.6309C89.7798 12.4764 90.4628 13.1619 91.3053 13.1619Z" fill="white" style="fill:white;fill-opacity:1;"/>
<path d="M91.3053 18.5C92.1479 18.5 92.8309 17.8145 92.8309 16.969C92.8309 16.1234 92.1479 15.4379 91.3053 15.4379C90.4628 15.4379 89.7798 16.1234 89.7798 16.969C89.7798 17.8145 90.4628 18.5 91.3053 18.5Z" fill="white" style="fill:white;fill-opacity:1;"/>
</g>
</svg>
