<svg width="30" height="30" viewBox="0 0 30 30" fill="none" xmlns="http://www.w3.org/2000/svg">
<path d="M2.64419 14.8167L2.57195 15L2.64419 15.1833C4.5868 20.1128 9.3824 23.6076 15.0005 23.6076C20.6185 23.6076 25.4141 20.1128 27.3567 15.1833L27.429 15L27.3567 14.8167C25.4141 9.8872 20.6185 6.39246 15.0005 6.39246C9.3824 6.39246 4.5868 9.8872 2.64419 14.8167Z" stroke="white"/>
<path d="M10.5088 15C10.5088 17.4797 12.5211 19.492 15.0008 19.492C17.4806 19.492 19.4929 17.4797 19.4929 15C19.4929 12.5202 17.4806 10.5079 15.0008 10.5079C12.5211 10.5079 10.5088 12.5202 10.5088 15Z" stroke="white"/>
<path d="M17.0107 15C17.0107 13.888 16.1131 12.9904 15.0012 12.9904" stroke="white"/>
</svg>
