<svg width="30" height="30" viewBox="0 0 30 30" fill="none" xmlns="http://www.w3.org/2000/svg">
<path d="M15.0005 4.3988C9.1547 4.3988 4.39941 9.15409 4.39941 14.9999C4.39941 20.8458 9.1547 25.6011 15.0005 25.6011C20.8464 25.6011 25.6017 20.8458 25.6017 14.9999C25.6017 9.15409 20.8464 4.3988 15.0005 4.3988Z" stroke="white"/>
<path d="M19.8315 19.5127H22.2379C22.8806 18.4914 23.2981 17.3448 23.4624 16.1493L21.268 14.2605L19.7343 14.9109L18.9625 18.0206L19.8315 19.5127Z" fill="white"/>
<path d="M10.2682 14.9124L8.73543 14.2605L6.54102 16.1524C6.70554 17.3473 7.12301 18.4934 7.76557 19.5142H10.1709L11.0399 18.0221L10.2682 14.9124Z" fill="white"/>
<path d="M21.5501 9.50386L21.5505 9.50277V9.50432C21.5504 9.50417 21.5502 9.50401 21.5501 9.50386L20.6033 12.1952L19.0021 12.8734L16.0822 10.4253V8.62449L18.3389 7.12108C19.5819 7.65153 20.6822 8.46793 21.5501 9.50386Z" fill="white"/>
<path d="M13.9212 8.62244L11.6646 7.11902C10.4214 7.64955 9.32097 8.46611 8.45296 9.50226L9.40018 12.1947L11.0014 12.8729L13.9212 10.4232V8.62244Z" fill="white"/>
<path d="M13.0243 23.2885L13.025 23.2903L13.0229 23.2882C13.0234 23.2883 13.0238 23.2884 13.0243 23.2885L11.9908 20.6837L12.814 19.2683H17.1874L18.0137 20.6848L16.9847 23.2882C15.6827 23.5982 14.3262 23.5983 13.0243 23.2885Z" fill="white"/>
</svg>
