<svg width="30" height="30" viewBox="0 0 30 30" fill="none" xmlns="http://www.w3.org/2000/svg">
<path fill-rule="evenodd" clip-rule="evenodd" d="M5.09953 18.1999L12.8927 11.6388C12.8927 11.6388 12.895 8.72095 12.895 7.39521C12.895 5.5279 13.571 3.9565 14.7138 3.9565C15.8566 3.9565 16.5275 5.5279 16.5275 7.39521C16.5275 8.72095 16.5253 11.6388 16.5253 11.6388L24.3236 18.1999L24.1808 20.3631L16.5253 16.9857L16.5275 22.9969L19.377 24.7724L19.3055 26.2826L10.1119 26.2826L10.0404 24.7724L12.895 22.9969L12.8927 16.9857L5.24239 20.3631L5.09953 18.1999ZM11.8933 18.52L4.33874 21.8552L4.06836 17.7609L11.8931 11.1732L11.8939 10.0136C11.8944 9.11834 11.895 8.05773 11.895 7.39521C11.895 6.35894 12.0799 5.3347 12.4807 4.52986C12.8758 3.73636 13.6027 2.9565 14.7138 2.9565C15.8259 2.9565 16.5515 3.73759 16.9451 4.53133C17.3442 5.33611 17.5275 6.35998 17.5275 7.39521C17.5275 8.05844 17.527 9.11963 17.5264 10.0148L17.5257 11.1736L25.3548 17.7607L25.0845 21.8548L17.5259 18.5201L17.5273 22.4417L20.4036 24.2338L20.2594 27.2826L9.15804 27.2826L9.01381 24.2333L11.8948 22.4414L11.8933 18.52Z" fill="white"/>
</svg>
