<svg width="30" height="30" viewBox="0 0 30 30" fill="none" xmlns="http://www.w3.org/2000/svg">
<path d="M18.2941 17.7324V18.2324H18.7941H20.2529V22.6294C20.2529 23.2815 20.512 23.9069 20.9731 24.3681C21.4342 24.8292 22.0596 25.0882 22.7118 25.0882C23.3639 25.0882 23.9893 24.8292 24.4504 24.3681C24.9115 23.9069 25.1706 23.2815 25.1706 22.6294V15.7735V5V4.5H24.6706H21.7324C20.8205 4.5 19.9459 4.86224 19.3012 5.50704C18.6564 6.15183 18.2941 7.02636 18.2941 7.93824V17.7324ZM6.22017 14.5739C6.5616 14.9154 6.9931 15.146 7.45882 15.2428V22.6294C7.45882 23.2815 7.71788 23.9069 8.179 24.3681C8.64011 24.8292 9.26553 25.0882 9.91765 25.0882C10.5698 25.0882 11.1952 24.8292 11.6563 24.3681C12.1174 23.9069 12.3765 23.2815 12.3765 22.6294V15.2428C12.8422 15.146 13.2737 14.9154 13.6151 14.5739C14.0762 14.1128 14.3353 13.4874 14.3353 12.8353V5.97941C14.3353 5.58705 14.1794 5.21075 13.902 4.93331C13.6245 4.65587 13.2482 4.5 12.8559 4.5C12.4635 4.5 12.0872 4.65587 11.8098 4.93331C11.5737 5.16936 11.4257 5.47697 11.3868 5.80516C11.3478 5.47697 11.1998 5.16936 10.9637 4.93331C10.6863 4.65587 10.31 4.5 9.91765 4.5C9.52528 4.5 9.14899 4.65587 8.87155 4.93331C8.63549 5.16936 8.48745 5.47697 8.44853 5.80515C8.40961 5.47697 8.26156 5.16936 8.02551 4.93331C7.74807 4.65587 7.37178 4.5 6.97941 4.5C6.58705 4.5 6.21075 4.65587 5.93331 4.93331C5.65587 5.21075 5.5 5.58705 5.5 5.97941V12.8353C5.5 13.4874 5.75905 14.1128 6.22017 14.5739Z" stroke="white"/>
</svg>
