<svg width="30" height="30" viewBox="0 0 30 30" fill="none" xmlns="http://www.w3.org/2000/svg">
<path d="M7.08301 25.5958V26.0958H7.58301H22.0639H22.5639V25.5958V25.3757C22.5639 23.596 21.117 22.3595 19.5704 21.5996C17.9948 20.8255 16.1094 20.4356 14.8235 20.4356C13.5375 20.4356 11.6521 20.8255 10.0766 21.5996C8.5299 22.3595 7.08301 23.596 7.08301 25.3757V25.5958ZM14.8235 17.3255C15.693 17.3255 16.5433 17.0686 17.2666 16.587C17.9899 16.1053 18.5539 15.4206 18.8871 14.6191C19.2202 13.8176 19.3074 12.9356 19.1376 12.0846C18.9677 11.2336 18.5485 10.4522 17.9332 9.83905C17.3179 9.22592 16.5342 8.80856 15.6813 8.63949C14.8284 8.47043 13.9443 8.55718 13.1407 8.88886C12.3372 9.22055 11.6501 9.78235 11.1665 10.5035C10.683 11.2247 10.4248 12.0727 10.4248 12.9404C10.4248 14.104 10.8886 15.2195 11.7137 16.0418C12.5388 16.864 13.6574 17.3255 14.8235 17.3255Z" stroke="white"/>
<path d="M4.4043 3.90417H3.9043V4.40417V25.5957V26.0957H4.4043H25.5958H26.0958V25.5957V4.40417V3.90417H25.5958H4.4043Z" stroke="white"/>
</svg>
