<svg width="30" height="30" viewBox="0 0 30 30" fill="none" xmlns="http://www.w3.org/2000/svg">
<path d="M8.96206 13.7432C10.8984 13.7432 12.4681 12.1735 12.4681 10.2372C12.4681 8.3009 10.8984 6.7312 8.96206 6.7312C7.02575 6.7312 5.45605 8.3009 5.45605 10.2372C5.45605 12.1735 7.02575 13.7432 8.96206 13.7432Z" stroke="white"/>
<path d="M12.9553 16.8521C11.584 16.1557 10.0706 15.8782 8.96231 15.8782C6.7915 15.8782 2.33984 17.2095 2.33984 19.8711V21.9163H9.64403V21.1338C9.64403 20.2086 10.0336 19.281 10.7153 18.5077C11.2592 17.8902 12.0208 17.3171 12.9553 16.8521Z" stroke="white"/>
<path d="M20.0641 17.0359C17.5286 17.0359 12.4678 18.6019 12.4678 21.7106V24.0479H27.6605V21.7106C27.6605 18.6019 22.5997 17.0359 20.0641 17.0359Z" stroke="white"/>
<path d="M20.0644 14.5224C22.431 14.5224 24.3495 12.6039 24.3495 10.2373C24.3495 7.87066 22.431 5.95215 20.0644 5.95215C17.6978 5.95215 15.7793 7.87066 15.7793 10.2373C15.7793 12.6039 17.6978 14.5224 20.0644 14.5224Z" stroke="white"/>
</svg>
