<svg width="20" height="20" viewBox="0 0 20 20" fill="none" xmlns="http://www.w3.org/2000/svg">
<path d="M11.8665 19.7059L14.8529 17.4287L17.8394 19.7059L16.7195 16.0102L19.7059 13.8824H16.0475L14.8529 10L13.6584 13.8824H10L12.9864 16.0102L11.8665 19.7059Z" fill="white"/>
<path d="M2.05865 17.9412C1.57336 17.9412 1.15777 17.7685 0.811886 17.4232C0.466592 17.0774 0.293945 16.6618 0.293945 16.1765V3.82354C0.293945 3.33825 0.466592 2.92295 0.811886 2.57766C1.15777 2.23178 1.57336 2.05883 2.05865 2.05883H2.941V0.294128H4.70571V2.05883H11.7645V0.294128H13.5292V2.05883H14.4116C14.8969 2.05883 15.3125 2.23178 15.6584 2.57766C16.0037 2.92295 16.1763 3.33825 16.1763 3.82354V7.35295H2.05865V16.1765H8.23512V17.9412H2.05865ZM2.05865 5.58825H14.4116V3.82354H2.05865V5.58825Z" fill="white"/>
</svg>
