<svg width="81" height="73" viewBox="0 0 81 73" fill="none" xmlns="http://www.w3.org/2000/svg">
<g opacity="0.1" clip-path="url(#clip0_3499_37528)">
<path d="M90.0882 0.31721L90.454 -2.24H87.8708H28.2488H26.6779L26.1428 -0.762978L16.8939 24.7667L16.76 25.1364V25.5297V54.7065C16.76 57.9356 19.3795 60.5935 22.6233 60.5935H26.2465C29.4903 60.5935 32.1098 57.9356 32.1098 54.7065V49.8668H71.1089V54.7065C71.1089 57.9356 73.7284 60.5935 76.9721 60.5935H80.5954C83.8391 60.5935 86.4587 57.9356 86.4587 54.7065V25.6891L90.0882 0.31721Z" stroke="#9A9A9A" stroke-width="4.48"/>
<path d="M31 20H72L68.6648 7H34.3352L31 20Z" fill="#9A9A9A"/>
<path d="M63.5039 35C63.5039 38.32 66.1839 41 69.5039 41C72.8239 41 75.5039 38.32 75.5039 35C75.5039 31.68 72.8239 29 69.5039 29C66.1839 29 63.5039 31.68 63.5039 35Z" fill="#9A9A9A"/>
<path d="M29.4189 35C29.4189 38.32 32.0989 41 35.4189 41C38.7389 41 41.4189 38.32 41.4189 35C41.4189 31.68 38.7389 29 35.4189 29C32.0989 29 29.4189 31.68 29.4189 35Z" fill="#9A9A9A"/>
</g>
<defs>
<clipPath id="clip0_3499_37528">
<rect width="81" height="73" fill="white"/>
</clipPath>
</defs>
</svg>
