<svg width="86" height="69" viewBox="0 0 86 69" fill="none" xmlns="http://www.w3.org/2000/svg">
<g opacity="0.2" clip-path="url(#clip0_229_28917)">
<path fill-rule="evenodd" clip-rule="evenodd" d="M94 45.0524L88.9269 45.2939L82.9625 35.6422L62.7688 35.6497L74.1148 61.5169L66.8479 61.9999L44.8072 35.6497C44.8072 35.6497 35.0052 35.6422 30.5516 35.6422C24.2788 35.6422 19 33.3565 19 29.4924C19 25.6283 24.2788 23.3598 30.5516 23.3598C35.0052 23.3598 44.8072 23.3673 44.8072 23.3673L66.8479 -3.00011L74.1148 -2.5171L62.7688 23.3673L82.9625 23.3598L88.9269 13.7254L94 13.9669L94 45.0524ZM79.6195 17.3611L85.6844 7.56426L100 8.24575L100 50.7735L85.6811 51.4552L79.6179 41.6434L71.9509 41.6463L83.0438 66.9366L64.2025 68.189L42.002 41.6477L39.3458 41.646C36.3384 41.6441 32.7763 41.6422 30.5516 41.6422C26.7948 41.6422 22.9142 40.9737 19.735 39.3803C16.6153 37.8167 13 34.642 13 29.4924C13 24.3369 16.6226 21.1667 19.7438 19.6087C22.9227 18.022 26.801 17.3598 30.5516 17.3598C32.7806 17.3598 36.3462 17.3617 39.3533 17.3636L42.0042 17.3654L64.2013 -9.18925L83.0416 -7.937L71.9514 17.3639L79.6195 17.3611Z" fill="#9A9A9A"/>
</g>
<defs>
<clipPath id="clip0_229_28917">
<rect width="69" height="86" fill="white" transform="translate(0 69) rotate(-90)"/>
</clipPath>
</defs>
</svg>
