<svg width="30" height="30" viewBox="0 0 30 30" fill="none" xmlns="http://www.w3.org/2000/svg">
<path d="M7.06364 18.9898L7.06358 23.0495L3.2448 23.0496L3.24511 6.95068L7.06389 6.95065L7.0637 14.4301L7.06369 14.9301L7.56369 14.9301L16.3722 14.93L16.8722 14.9299L16.8722 14.4299L16.8723 9.04032L23.3156 9.04017C25.1875 9.04012 26.7535 10.6582 26.7534 12.7198L26.7532 23.0491L22.9344 23.0491L22.9345 18.9894L22.9345 18.4894L22.4345 18.4894L7.56365 18.4898L7.06365 18.4898L7.06364 18.9898Z" stroke="white"/>
<path d="M14.5428 10.2539C14.5428 11.6029 13.4619 12.6918 12.1229 12.6919C10.7839 12.6919 9.70305 11.603 9.70307 10.254C9.7031 8.90498 10.784 7.81602 12.123 7.81599C13.462 7.81596 14.5429 8.90488 14.5428 10.2539Z" fill="white"/>
</svg>
