<svg width="21" height="30" viewBox="0 0 21 30" fill="none" xmlns="http://www.w3.org/2000/svg">
<path d="M12.3984 1.00024V8.6007H19.9989L12.3984 1.00024Z" stroke="white" stroke-width="1.33256" stroke-linejoin="round"/>
<path d="M12.4007 1.00024H1V28.8909H20.0011V8.60069" stroke="white" stroke-width="1.33256" stroke-linejoin="round"/>
<path d="M14.7966 14.2424H10.9785V18.0604H5.72865V13.2878H4.29688V20.924H5.72865V19.4922H15.2738V20.924H16.7056V16.1514C16.7056 15.0967 15.8513 14.2424 14.7966 14.2424Z" fill="white"/>
<path d="M9.86954 15.5612C9.86954 16.3843 9.20512 17.0487 8.38203 17.0487C7.55895 17.0487 6.89453 16.3843 6.89453 15.5612C6.89453 14.7381 7.55895 14.0737 8.38203 14.0737C9.20512 14.0737 9.86954 14.7381 9.86954 15.5612Z" fill="white"/>
</svg>
