<svg width="30" height="30" viewBox="0 0 30 30" fill="none" xmlns="http://www.w3.org/2000/svg">
<path d="M12.2255 3.25873C13.4586 1.13601 16.5414 1.13601 17.7745 3.25873L29.566 23.5572C30.7991 25.68 29.2577 28.3334 26.7915 28.3334H3.20847C0.742269 28.3334 -0.799109 25.68 0.433993 23.5572L12.2255 3.25873Z" fill="#FDC022"/>
<path d="M16.4097 10L16.0874 19.873H13.7437L13.4116 10H16.4097ZM13.3335 22.9297C13.3335 22.513 13.4767 22.168 13.7632 21.8945C14.0562 21.6146 14.4403 21.4746 14.9155 21.4746C15.3973 21.4746 15.7814 21.6146 16.0679 21.8945C16.3543 22.168 16.4976 22.513 16.4976 22.9297C16.4976 23.3333 16.3543 23.6751 16.0679 23.9551C15.7814 24.235 15.3973 24.375 14.9155 24.375C14.4403 24.375 14.0562 24.235 13.7632 23.9551C13.4767 23.6751 13.3335 23.3333 13.3335 22.9297Z" fill="#240C08"/>
</svg>
