<svg width="30" height="30" viewBox="0 0 30 30" fill="none" xmlns="http://www.w3.org/2000/svg">
<path d="M2.67871 14.4114L2.42871 13.9784L1.9957 14.2284L2.2457 14.6614L2.67871 14.4114ZM5.27265 18.9042L4.83964 19.1542L5.08964 19.5872L5.52265 19.3372L5.27265 18.9042ZM5.91448 18.5337L5.66448 18.1007L5.91448 18.5337ZM7.39673 21.101L7.14673 20.668L7.39673 21.101ZM6.7549 21.4716L6.5049 21.0386L6.07189 21.2886L6.32189 21.7216L6.7549 21.4716ZM9.34884 25.9644L8.91583 26.2144L9.16583 26.6474L9.59884 26.3974L9.34884 25.9644ZM27.3202 15.5886L27.5702 16.0217L28.0032 15.7717L27.7532 15.3386L27.3202 15.5886ZM24.7262 11.0958L25.1592 10.8458L24.9092 10.4128L24.4762 10.6628L24.7262 11.0958ZM24.0844 11.4664L23.8344 11.0334L24.0844 11.4664ZM22.6022 8.89904L22.8522 9.33205L22.6022 8.89904ZM23.244 8.52848L23.494 8.96149L23.927 8.71149L23.677 8.27848L23.244 8.52848ZM20.65 4.03564L21.0831 3.78564L20.8331 3.35263L20.4 3.60263L20.65 4.03564ZM2.2457 14.6614L4.83964 19.1542L5.70566 18.6542L3.11172 14.1614L2.2457 14.6614ZM5.52265 19.3372L6.16448 18.9667L5.66448 18.1007L5.02265 18.4712L5.52265 19.3372ZM6.16448 18.9667C6.44647 18.8039 6.70663 18.7788 6.91867 18.8356C7.1307 18.8924 7.34346 19.0442 7.50626 19.3262L8.37229 18.8262C8.0936 18.3435 7.6763 18.0033 7.17749 17.8697C6.67867 17.736 6.14718 17.822 5.66448 18.1007L6.16448 18.9667ZM7.50626 19.3262C7.66907 19.6082 7.69417 19.8684 7.63736 20.0804C7.58054 20.2924 7.42872 20.5052 7.14673 20.668L7.64673 21.534C8.12943 21.2553 8.46963 20.838 8.60328 20.3392C8.73694 19.8404 8.65097 19.3089 8.37229 18.8262L7.50626 19.3262ZM7.14673 20.668L6.5049 21.0386L7.0049 21.9046L7.64673 21.534L7.14673 20.668ZM6.32189 21.7216L8.91583 26.2144L9.78185 25.7144L7.18791 21.2216L6.32189 21.7216ZM9.59884 26.3974L27.5702 16.0217L27.0702 15.1556L9.09884 25.5314L9.59884 26.3974ZM27.7532 15.3386L25.1592 10.8458L24.2932 11.3458L26.8872 15.8386L27.7532 15.3386ZM24.4762 10.6628L23.8344 11.0334L24.3344 11.8994L24.9762 11.5288L24.4762 10.6628ZM23.8344 11.0334C23.5524 11.1962 23.2923 11.2213 23.0802 11.1645C22.8682 11.1076 22.6554 10.9558 22.4926 10.6738L21.6266 11.1738C21.9053 11.6565 22.3226 11.9967 22.8214 12.1304C23.3202 12.264 23.8517 12.1781 24.3344 11.8994L23.8344 11.0334ZM22.4926 10.6738C22.3298 10.3918 22.3047 10.1317 22.3615 9.91965C22.4183 9.70761 22.5702 9.49486 22.8522 9.33205L22.3522 8.46603C21.8695 8.74471 21.5293 9.16201 21.3956 9.66083C21.2619 10.1596 21.3479 10.6911 21.6266 11.1738L22.4926 10.6738ZM22.8522 9.33205L23.494 8.96149L22.994 8.09547L22.3522 8.46603L22.8522 9.33205ZM23.677 8.27848L21.0831 3.78564L20.217 4.28564L22.811 8.77848L23.677 8.27848ZM20.4 3.60263L2.42871 13.9784L2.92871 14.8444L20.9 4.46866L20.4 3.60263Z" fill="white"/>
<path fill-rule="evenodd" clip-rule="evenodd" d="M7.98663 14.1028L6.60547 11.6224L7.6755 11.0144L9.05665 13.4948L7.98663 14.1028ZM10.7489 19.0637L9.36778 16.5832L10.4378 15.9752L11.819 18.4556L10.7489 19.0637ZM13.5113 24.0245L12.1301 21.5441L13.2001 20.936L14.5813 23.4164L13.5113 24.0245Z" fill="white"/>
</svg>
