<svg width="86" height="69" viewBox="0 0 86 69" fill="none" xmlns="http://www.w3.org/2000/svg">
<g opacity="0.2" clip-path="url(#clip0_229_28923)">
<path fill-rule="evenodd" clip-rule="evenodd" d="M12.502 22.1L13.4648 19.5915C21.1942 -0.545428 40.3608 -15 62.9999 -15C85.639 -15 104.806 -0.545418 112.535 19.5916L113.498 22.1L112.535 24.6085C104.806 44.7454 85.639 59.2 62.9999 59.2C40.3609 59.2 21.1942 44.7454 13.4648 24.6084L12.502 22.1ZM106 22.1C99.2372 39.7185 82.5454 52.2 62.9999 52.2C43.4545 52.2 26.7626 39.7185 19.9999 22.1C26.7626 4.48147 43.4545 -8 62.9999 -7.99999C82.5454 -7.99999 99.2372 4.48148 106 22.1Z" fill="#9A9A9A"/>
<circle cx="63.0004" cy="22.1001" r="13.6019" fill="#9A9A9A"/>
</g>
<defs>
<clipPath id="clip0_229_28923">
<rect width="86" height="69" fill="white"/>
</clipPath>
</defs>
</svg>
