<svg width="30" height="30" viewBox="0 0 30 30" fill="none" xmlns="http://www.w3.org/2000/svg">
<path d="M5.98633 19.8393C5.98633 20.8587 6.39839 21.7697 7.05051 22.4385V24.1409C7.05051 25.0035 7.74833 25.7163 8.6147 25.7163H9.67888C10.5522 25.7163 11.2431 25.0019 11.2431 24.1409V23.5655H18.7565V24.1409C18.7565 25.0019 19.4474 25.7163 20.3207 25.7163H21.3849C22.2513 25.7163 22.9491 25.0035 22.9491 24.1409V22.4385C23.6012 21.7697 24.0133 20.8587 24.0133 19.8393V9.08548C24.0133 8.05597 23.751 7.20723 23.2459 6.52731C22.7441 5.85192 22.033 5.38373 21.2032 5.05786C19.5647 4.41443 17.3482 4.28394 14.9998 4.28394C12.6514 4.28394 10.4349 4.41443 8.79642 5.05786C7.96659 5.38373 7.25549 5.85192 6.75374 6.52731C6.24863 7.20723 5.98633 8.05597 5.98633 9.08548V19.8393Z" stroke="white"/>
<path d="M8.61523 19.3017C8.61523 20.1942 9.32824 20.9148 10.2115 20.9148C11.0948 20.9148 11.8078 20.1942 11.8078 19.3017C11.8078 18.4091 11.0948 17.6886 10.2115 17.6886C9.32824 17.6886 8.61523 18.4091 8.61523 19.3017Z" fill="white"/>
<path d="M18.1934 19.3017C18.1934 20.1942 18.9064 20.9148 19.7896 20.9148C20.6729 20.9148 21.3859 20.1942 21.3859 19.3017C21.3859 18.4091 20.6729 17.6886 19.7896 17.6886C18.9064 17.6886 18.1934 18.4091 18.1934 19.3017Z" fill="white"/>
<path d="M20.8854 8.7887V14.759H9.11523V8.7887H20.8854Z" stroke="white"/>
</svg>
