<svg width="80" height="74" viewBox="0 0 80 74" fill="none" xmlns="http://www.w3.org/2000/svg">
<g opacity="0.1" clip-path="url(#clip0_2720_3701)">
<mask id="path-1-outside-1_2720_3701" maskUnits="userSpaceOnUse" x="5.83984" y="-17.2466" width="95" height="89" fill="black">
<rect fill="white" x="5.83984" y="-17.2466" width="95" height="89"/>
<path fill-rule="evenodd" clip-rule="evenodd" d="M21.3652 40.5876L12.8398 25.227L26.549 16.9935L30.5574 24.5032L34.1356 22.3821L30.1159 14.8513L71.9052 -10.2466L80.4305 5.11395L78.3211 6.38086C75.8078 7.89027 75.0869 10.689 76.5379 13.3034C77.9889 15.9178 80.6794 16.6677 83.1927 15.1583L85.3022 13.8914L93.8275 29.2519L51.4026 54.7316L47.9913 48.3406L44.4131 50.4616L47.8357 56.8738L34.7622 64.7255L26.2368 49.365L28.3463 48.0981C30.8595 46.5887 31.5805 43.7899 30.1294 41.1755C28.6784 38.5612 25.9879 37.8112 23.4747 39.3206L21.3652 40.5876ZM35.176 33.156L39.7946 41.8088L43.3727 39.6877L38.7542 31.0349L35.176 33.156Z"/>
</mask>
<path d="M12.8398 25.227L10.5333 21.3865L6.82168 23.6156L8.92272 27.4011L12.8398 25.227ZM21.3652 40.5876L17.4481 42.7616L19.6977 46.8149L23.6718 44.4281L21.3652 40.5876ZM26.549 16.9935L30.5013 14.884L28.2823 10.7267L24.2424 13.153L26.549 16.9935ZM30.5574 24.5032L26.6052 26.6127L28.8114 30.7461L32.8418 28.3569L30.5574 24.5032ZM34.1356 22.3821L36.42 26.2359L40.1049 24.0515L38.0878 20.2725L34.1356 22.3821ZM30.1159 14.8513L27.8093 11.0107L24.1582 13.2036L26.1637 16.9609L30.1159 14.8513ZM71.9052 -10.2466L75.8223 -12.4206L73.5727 -16.4739L69.5986 -14.0872L71.9052 -10.2466ZM80.4305 5.11395L82.7371 8.95452L86.4487 6.72542L84.3476 2.93988L80.4305 5.11395ZM78.3211 6.38086L80.6276 10.2214V10.2214L78.3211 6.38086ZM83.1927 15.1583L85.4993 18.9989V18.9989L83.1927 15.1583ZM85.3022 13.8914L89.2193 11.7173L86.9696 7.66405L82.9956 10.0508L85.3022 13.8914ZM93.8275 29.2519L96.1341 33.0925L99.8457 30.8634L97.7446 27.0778L93.8275 29.2519ZM51.4026 54.7316L47.4504 56.8411L49.6694 60.9984L53.7092 58.5722L51.4026 54.7316ZM47.9913 48.3406L51.9436 46.231L49.7373 42.0976L45.7069 44.4868L47.9913 48.3406ZM44.4131 50.4616L42.1287 46.6078L38.4438 48.7922L40.4609 52.5712L44.4131 50.4616ZM47.8357 56.8738L50.1423 60.7144L53.7935 58.5215L51.788 54.7642L47.8357 56.8738ZM34.7622 64.7255L30.845 66.8996L33.0947 70.9529L37.0687 68.5661L34.7622 64.7255ZM26.2368 49.365L23.9302 45.5244L20.2187 47.7535L22.3197 51.5391L26.2368 49.365ZM28.3463 48.0981L30.6529 51.9387L30.6529 51.9387L28.3463 48.0981ZM30.1294 41.1755L26.2123 43.3496L26.2123 43.3496L30.1294 41.1755ZM23.4747 39.3206L25.7813 43.1612H25.7813L23.4747 39.3206ZM39.7946 41.8088L35.8423 43.9184L38.0486 48.0518L42.079 45.6626L39.7946 41.8088ZM35.176 33.156L32.8915 29.3022L29.2066 31.4865L31.2237 35.2655L35.176 33.156ZM43.3727 39.6877L45.6572 43.5415L49.3421 41.3572L47.325 37.5782L43.3727 39.6877ZM38.7542 31.0349L42.7064 28.9253L40.5001 24.792L36.4697 27.1811L38.7542 31.0349ZM8.92272 27.4011L17.4481 42.7616L25.2823 38.4135L16.757 23.053L8.92272 27.4011ZM24.2424 13.153L10.5333 21.3865L15.1464 29.0676L28.8556 20.8341L24.2424 13.153ZM34.5096 22.3936L30.5013 14.884L22.5968 19.1031L26.6052 26.6127L34.5096 22.3936ZM31.8511 18.5283L28.2729 20.6494L32.8418 28.3569L36.42 26.2359L31.8511 18.5283ZM26.1637 16.9609L30.1833 24.4916L38.0878 20.2725L34.0681 12.7418L26.1637 16.9609ZM69.5986 -14.0872L27.8093 11.0107L32.4225 18.6919L74.2118 -6.406L69.5986 -14.0872ZM84.3476 2.93988L75.8223 -12.4206L67.9881 -8.07252L76.5134 7.28801L84.3476 2.93988ZM80.6276 10.2214L82.7371 8.95452L78.1239 1.27337L76.0145 2.54028L80.6276 10.2214ZM80.455 11.1293C80.3339 10.9111 80.2947 10.756 80.2822 10.6721C80.2701 10.5906 80.2792 10.5533 80.2813 10.5453C80.2832 10.5379 80.2893 10.5147 80.3231 10.4709C80.3582 10.4255 80.4444 10.3315 80.6276 10.2214L76.0145 2.54028C73.8446 3.84349 72.2376 5.8526 71.6045 8.31027C70.9736 10.7595 71.4038 13.2847 72.6208 15.4775L80.455 11.1293ZM80.8861 11.3177C80.7018 11.4284 80.5991 11.4475 80.5849 11.4498C80.5753 11.4513 80.612 11.4457 80.6698 11.4618C80.7267 11.4776 80.7403 11.4967 80.7102 11.4716C80.6767 11.4436 80.5768 11.3488 80.455 11.1293L72.6208 15.4775C73.8357 17.6664 75.7698 19.3975 78.2641 20.0928C80.7699 20.7912 83.3313 20.3009 85.4993 18.9989L80.8861 11.3177ZM82.9956 10.0508L80.8861 11.3177L85.4993 18.9989L87.6087 17.732L82.9956 10.0508ZM97.7446 27.0778L89.2193 11.7173L81.385 16.0655L89.9104 31.426L97.7446 27.0778ZM53.7092 58.5722L96.1341 33.0925L91.5209 25.4113L49.096 50.891L53.7092 58.5722ZM44.0391 50.4501L47.4504 56.8411L55.3549 52.622L51.9436 46.231L44.0391 50.4501ZM46.6976 54.3154L50.2758 52.1944L45.7069 44.4868L42.1287 46.6078L46.6976 54.3154ZM51.788 54.7642L48.3654 48.3521L40.4609 52.5712L43.8835 58.9833L51.788 54.7642ZM37.0687 68.5661L50.1423 60.7144L45.5291 53.0332L32.4556 60.8849L37.0687 68.5661ZM22.3197 51.5391L30.845 66.8996L38.6793 62.5515L30.1539 47.1909L22.3197 51.5391ZM26.0397 44.2575L23.9302 45.5244L28.5434 53.2056L30.6529 51.9387L26.0397 44.2575ZM26.2123 43.3496C26.3334 43.5678 26.3726 43.7229 26.3851 43.8068C26.3972 43.8884 26.3881 43.9257 26.3861 43.9337C26.3842 43.941 26.3781 43.9643 26.3443 44.008C26.3091 44.0535 26.2229 44.1475 26.0397 44.2575L30.6529 51.9387C32.8228 50.6355 34.4298 48.6264 35.0628 46.1687C35.6937 43.7195 35.2636 41.1943 34.0466 39.0015L26.2123 43.3496ZM25.7813 43.1612C25.9656 43.0505 26.0683 43.0314 26.0824 43.0291C26.092 43.0276 26.0554 43.0333 25.9975 43.0172C25.9406 43.0013 25.9271 42.9822 25.9571 43.0073C25.9907 43.0354 26.0905 43.1302 26.2123 43.3496L34.0466 39.0015C32.8316 36.8125 30.8976 35.0814 28.4032 34.3862C25.8974 33.6877 23.336 34.178 21.1681 35.4801L25.7813 43.1612ZM23.6718 44.4281L25.7813 43.1612L21.1681 35.4801L19.0586 36.747L23.6718 44.4281ZM43.7468 39.6992L39.1282 31.0464L31.2237 35.2655L35.8423 43.9184L43.7468 39.6992ZM41.0883 35.8339L37.5101 37.955L42.079 45.6626L45.6572 43.5415L41.0883 35.8339ZM34.8019 33.1445L39.4205 41.7973L47.325 37.5782L42.7064 28.9253L34.8019 33.1445ZM37.4604 37.0098L41.0386 34.8887L36.4697 27.1811L32.8915 29.3022L37.4604 37.0098Z" fill="#535353" mask="url(#path-1-outside-1_2720_3701)"/>
</g>
<defs>
<clipPath id="clip0_2720_3701">
<rect width="75" height="80" fill="white" transform="matrix(0 -1 1 0 0 74)"/>
</clipPath>
</defs>
</svg>
