<svg width="86" height="69" viewBox="0 0 86 69" fill="none" xmlns="http://www.w3.org/2000/svg">
<g opacity="0.2" clip-path="url(#clip0_229_28919)">
<path fill-rule="evenodd" clip-rule="evenodd" d="M8.00781 4.84229L30.4779 4.84209L30.4772 34.6322L66.3489 34.6316L66.3495 12.6437L87.0442 12.643C96.5278 12.6428 103.986 20.7561 103.985 30.487L103.985 73.1564L81.5145 73.1566L81.5148 56.1337L30.4769 56.135L30.4766 73.158L8.00652 73.1582L8.00781 4.84229ZM12.4877 9.32225L12.4866 68.6781L25.9967 68.678L25.997 51.6551L85.9948 51.6536L85.9946 68.6765L99.5047 68.6764L99.5054 30.4871C99.5056 22.9751 93.8057 17.1229 87.0441 17.123L70.8293 17.1236L70.8288 39.1115L25.9971 39.1122L25.9978 9.32213L12.4877 9.32225Z" fill="#9A9A9A"/>
<path d="M58.2362 18.5385C58.2361 24.2575 53.6537 28.874 47.9771 28.8741C42.3006 28.8743 37.7184 24.2579 37.7185 18.539C37.7187 12.8201 42.301 8.20351 47.9776 8.20339C53.6541 8.20327 58.2363 12.8196 58.2362 18.5385Z" fill="#9A9A9A"/>
</g>
<defs>
<clipPath id="clip0_229_28919">
<rect width="86" height="69" fill="white"/>
</clipPath>
</defs>
</svg>
