<svg width="30" height="30" viewBox="0 0 30 30" fill="none" xmlns="http://www.w3.org/2000/svg">
<path d="M22.2757 5.82969L22.1562 5.5H21.8056H8.19444H7.84378L7.72434 5.82969L5.0299 13.2672L5 13.3497V13.4375V21.9375C5 22.7949 5.69577 23.5 6.55556 23.5H7.61111C8.47089 23.5 9.16667 22.7949 9.16667 21.9375V20.375H20.8333V21.9375C20.8333 22.7949 21.5291 23.5 22.3889 23.5H23.4444C24.3042 23.5 25 22.7949 25 21.9375V13.4375V13.3497L24.9701 13.2672L22.2757 5.82969Z" stroke="white"/>
<path d="M21.0858 11.6508H8.91412L9.76084 8.22742H20.239L21.0858 11.6508Z" stroke="white"/>
<path d="M18.4648 16.5C18.4648 17.33 19.1348 18 19.9648 18C20.7948 18 21.4648 17.33 21.4648 16.5C21.4648 15.67 20.7948 15 19.9648 15C19.1348 15 18.4648 15.67 18.4648 16.5Z" fill="white"/>
<path d="M8.53516 16.5C8.53516 17.33 9.20516 18 10.0352 18C10.8652 18 11.5352 17.33 11.5352 16.5C11.5352 15.67 10.8652 15 10.0352 15C9.20516 15 8.53516 15.67 8.53516 16.5Z" fill="white"/>
</svg>
