<svg width="30" height="30" viewBox="0 0 30 30" fill="none" xmlns="http://www.w3.org/2000/svg">
<path fill-rule="evenodd" clip-rule="evenodd" d="M15 28.12C22.246 28.12 28.12 22.246 28.12 15C28.12 7.75402 22.246 1.88 15 1.88C7.75402 1.88 1.88 7.75402 1.88 15C1.88 22.246 7.75402 28.12 15 28.12ZM15 30C23.2843 30 30 23.2843 30 15C30 6.71573 23.2843 0 15 0C6.71573 0 0 6.71573 0 15C0 23.2843 6.71573 30 15 30ZM14.9829 16.853L10.6647 21.1713L9.33532 19.8419L13.6535 15.5237L9.33736 11.2075L10.6667 9.87813L14.9829 14.1943L19.2991 9.87813L20.6285 11.2075L16.3123 15.5237L20.6305 19.8419L19.3011 21.1713L14.9829 16.853Z" fill="#E46D64"/>
</svg>
