<svg width="31" height="30" viewBox="0 0 31 30" fill="none" xmlns="http://www.w3.org/2000/svg">
<g clip-path="url(#clip0_6003_10744)">
<path fill-rule="evenodd" clip-rule="evenodd" d="M10.3178 9.79098H14.1167V13.565H10.3178V9.79098ZM11.6714 5.76905H9.77422C9.32094 5.76853 8.87208 5.8579 8.45371 6.03197C8.03209 6.20622 7.6489 6.46146 7.32593 6.78317C7.0036 7.1055 6.74782 7.48783 6.57308 7.90847C6.39454 8.32814 6.30188 8.77918 6.30054 9.23509V11.5743H7.84088V9.23509C7.84247 8.98225 7.89362 8.73216 7.99146 8.49891C8.08748 8.26455 8.22926 8.05159 8.40854 7.87241C8.77094 7.51143 9.26215 7.30878 9.77422 7.30901H11.6714V5.76905ZM21.2884 5.76905H20.0492V7.306H21.2884C21.5418 7.30774 21.7924 7.35877 22.0262 7.45624C22.2603 7.5536 22.4734 7.69488 22.6541 7.87241L22.7068 7.9265C22.8623 8.09488 22.9872 8.28911 23.0757 8.50042C23.1742 8.73292 23.2254 8.98266 23.2263 9.23509V11.5743H24.7666V9.23509C24.767 8.34254 24.4205 7.48463 23.7999 6.84176L23.7442 6.78617C23.4212 6.46455 23.038 6.20933 22.6164 6.03497C22.1959 5.85909 21.7444 5.76868 21.2884 5.76905ZM24.7621 20.7645V18.1669H23.2217V20.7645C23.2209 21.017 23.1697 21.2667 23.0712 21.4992C22.9725 21.7333 22.8293 21.946 22.6496 22.1257C22.4708 22.3053 22.2583 22.4479 22.0242 22.5454C21.7901 22.6428 21.539 22.6932 21.2854 22.6936H20.0492V24.2306H21.2884C21.7443 24.2303 22.1957 24.1401 22.6166 23.9653C23.0375 23.7905 23.4197 23.5345 23.7412 23.212C24.063 22.8892 24.3187 22.507 24.4941 22.0867C24.668 21.6675 24.7576 21.2182 24.7576 20.7645H24.7621ZM9.77422 24.2306H11.6714V22.6936H9.77422C9.52031 22.6934 9.26896 22.6431 9.03459 22.5456C8.80022 22.4482 8.58746 22.3055 8.40854 22.1257L8.36939 22.0897C8.20058 21.9121 8.06721 21.704 7.9764 21.4767C7.88552 21.2502 7.83901 21.0085 7.83938 20.7645V18.1669H6.30054V20.7645C6.29984 21.2059 6.38524 21.6433 6.552 22.0521C6.71819 22.4648 6.96314 22.8414 7.27323 23.1609L7.31991 23.2135C7.6435 23.5351 8.02716 23.7903 8.44919 23.9647C8.8691 24.1389 9.31947 24.2282 9.77422 24.2276V24.2306ZM19.7902 19.2576H20.7554V20.2087H19.7902V19.2576ZM17.9292 19.2576H18.8988V20.1591H16.961V18.3096H17.8945V17.3706H18.8491V15.4986H19.8218V16.4181H20.7433V17.3691H19.8218V18.3201H17.9292V19.2561V19.2576ZM15.0548 17.3556H15.9928V16.4046H15.0894V15.4535H15.9928V14.5025H15.0698V15.4535H14.1001V14.5025H15.0532V11.678H16.0214V14.501H16.9595V15.452H17.8825V14.501H18.8507V15.452H17.9292V16.4031H16.961V18.2751H16.0229V20.1636H15.0548V17.3556ZM19.7752 14.501H20.7433V15.452H19.7752V14.501ZM12.2105 14.501H13.1786V15.452H12.2105V14.501ZM10.3178 14.501H11.286V15.452H10.3178V14.501ZM15.0548 9.79098H16.0229V10.742H15.0548V9.79098ZM10.3027 16.4181H14.1001V20.1921H10.3027V16.4181ZM11.2257 17.3376H13.1832V19.2772H11.2257V17.3376ZM16.9474 9.79248H20.7433V13.565H16.9459V9.79098L16.9474 9.79248ZM17.8704 10.709H19.8279V12.6486H17.8704V10.7074V10.709ZM11.2453 10.709H13.2027V12.6486H11.2453V10.7074V10.709Z" fill="#8DBBF8" style="fill:#8DBBF8;fill:color(display-p3 0.5529 0.7333 0.9725);fill-opacity:1;"/>
</g>
<defs>
<clipPath id="clip0_6003_10744">
<rect width="18.4615" height="18.4615" fill="white" style="fill:white;fill-opacity:1;" transform="translate(6.30054 5.76904)"/>
</clipPath>
</defs>
</svg>
